<mxfile host="app.diagrams.net" modified="2023-10-19T18:37:58.534Z" agent="Mozilla/5.0 (Windows NT 10.0; Win64; x64) AppleWebKit/537.36 (KHTML, like Gecko) Chrome/118.0.0.0 Safari/537.36" etag="XRGBVBEBiWTEDm7JQz9S" version="22.0.5" type="github">
  <diagram name="Page-1" id="wxCNjUNSV0VcSaPTKKKL">
    <mxGraphModel dx="1050" dy="574" grid="1" gridSize="10" guides="1" tooltips="1" connect="1" arrows="1" fold="1" page="1" pageScale="1" pageWidth="1100" pageHeight="850" math="0" shadow="0">
      <root>
        <mxCell id="0" />
        <mxCell id="1" parent="0" />
        <mxCell id="HYgE4R-NImivH-0jWFlL-1" value="" style="shape=image;verticalLabelPosition=bottom;labelBackgroundColor=default;verticalAlign=top;aspect=fixed;imageAspect=0;image=data:image/jpeg,/9j/4AAQSkZJRgABAQAAAQABAAD/4gHYSUNDX1BST0ZJTEUAAQEAAAHIAAAAAAQwAABtbnRyUkdCIFhZWiAH4AABAAEAAAAAAABhY3NwAAAAAAAAAAAAAAAAAAAAAAAAAAAAAAAAAAAAAQAA9tYAAQAAAADTLQAAAAAAAAAAAAAAAAAAAAAAAAAAAAAAAAAAAAAAAAAAAAAAAAAAAAAAAAAAAAAAAAAAAAlkZXNjAAAA8AAAACRyWFlaAAABFAAAABRnWFlaAAABKAAAABRiWFlaAAABPAAAABR3dHB0AAABUAAAABRyVFJDAAABZAAAAChnVFJDAAABZAAAAChiVFJDAAABZAAAAChjcHJ0AAABjAAAADxtbHVjAAAAAAAAAAEAAAAMZW5VUwAAAAgAAAAcAHMAUgBHAEJYWVogAAAAAAAAb6IAADj1AAADkFhZWiAAAAAAAABimQAAt4UAABjaWFlaIAAAAAAAACSgAAAPhAAAts9YWVogAAAAAAAA9tYAAQAAAADTLXBhcmEAAAAAAAQAAAACZmYAAPKnAAANWQAAE9AAAApbAAAAAAAAAABtbHVjAAAAAAAAAAEAAAAMZW5VUwAAACAAAAAcAEcAbwBvAGcAbABlACAASQBuAGMALgAgADIAMAAxADb/2wBDAAMCAgICAgMCAgIDAwMDBAYEBAQEBAgGBgUGCQgKCgkICQkKDA8MCgsOCwkJDRENDg8QEBEQCgwSExIQEw8QEBD/2wBDAQMDAwQDBAgEBAgQCwkLEBAQEBAQEBAQEBAQEBAQEBAQEBAQEBAQEBAQEBAQEBAQEBAQEBAQEBAQEBAQEBAQEBD/wAARCALTA/cDASIAAhEBAxEB/8QAHQABAAIDAQEBAQAAAAAAAAAAAAYHBAUIAwIBCf/EAFkQAAEEAgECAwYCBQUIDgkDBQABAgMEBQYRBxITFCEIFRYxQVEiYRcjMmJxM0JSgZEJJHJ0k6Gy0SU1NlNUVVZzdZSWs9LUJic0N0OCorG0ksHTRGN2g/D/xAAaAQEAAgMBAAAAAAAAAAAAAAAABAUBAgMG/8QAMxEBAAIBAgMECAcAAwEAAAAAAAECAwQREiExBUFRYRMUUnGRobHBFSIygdHh8CMzQvH/2gAMAwEAAhEDEQA/AP6pgAAAAAAAAAAAAAAAAAAAAAAAAAAAAAAAAAAAAAAAAAAAAAAAAAAAAAAAAAAAAAAAAAAAAAAAAAAAAAAAAAAAAAAAAAAAAAAAAAAAAAAAAAAAAAAAAAAAAAAAAAAAAAAAAAAAAAAAAAAAAAAAAAAAAAAAAAAAAAAAAAAAAAAAAAAAAAAAAAAAAAAAAAAAAAAAAAAAAAAAAAAAAAAAAAAAAAAAAAAAAAAAAAAAAAAAAAAAAAAAAAAAAAAAAAAAAAAAAAAAAAAAAAAAAAAAAAAAAAAAAAAAAAAAAAAAAAAAAAAAAAAAAAAAAAAAAAAAAAAAAAAAAAAAAAAAAAAAAAAAAAAAHJ/tA+0z1qwvX/Gezl0HpdMqGwWMI3Nre6g3rMFfJOfI5jKVCOurXyz/AIFcvqqcenCcKp1gcUe2dique6iV8R119kDN9YOmcmMa/AZbQ8PYtbFi8kjl8aGw+KzG9tdze1ycdrFVERUeqegW/qntWa/h+jWsdS/aSw1vpDks1kVwdrH52tOxkGQa97ee9Wfhgf4avbK/hnYqcu+qyLo37VHQD2gb+ZxfSDqTR2G3gOFvwsr2K7o2KqokjUnjZ4kfKcd7O5vy9fVOeMsb0W63ZD2cOi+qdQ9J2/Kw0+rdTJVcRlWSZHIYjW0letZl9zEd2IxnHcju1rGqjFRvHYl3b70t3LY/bJ2fKYHA5DH0s30fs4OHYW0pGVG3nzuSON1hGq3vaiovbyrkb6ogFia97bvsqbX1O/Q7r3WjDXdqdYdUjrMinSvNO3/4cVtY0rSuVfREZIquX0TlfQ3eS9qboLhtJ23qJld/iqYDRcu/A7BYmx9tr6N9r2sWFYVi8V6q6RnarGORyORWqqepxBHrHVvefZ80L2Iafss7vrG36ll8Y/IbZcxsUWt1m07CSTX6+Qa/iaWRvK9rE7nLI9EVVQmHW72cOom1+1k7pbT1W/c6O9UrdDb9tvtpzPqw3qNaaF8MkvHhsdM5tV3CuRyqiqiKvqB1B1Y9rXol0iwEeW2PbUSxkNbm2fFV20LciW6bOxGvV8UL0iRz5Ym/j4Xl/wAvReOWuhf90B619TqXTvO5WPpdZo7vv8Op2amHx+WZZxUK1HzyRyusvbG6wn6nh8XiRcK76+jfT2TOkHWqDH9U8z1b1TMVL2maY/pfqcdmlM1+Tp1mzv8ANwI9P1iS98DUdGio5W/NVThPvWumXUiDov7FmKn6fbLHd1XZ69jO1n4mwkuKiSCdFfaYrOYGormpy9GpyqfcDpXqd7avsu9Gt6i6a9SeruOw2xy+Erqi1bU7YPEXhnjywxPig+aKviObw1UcvDfUxcl7RNvD+0zY6XZSzr9bR6mgO3GbLyK9JWKk/Yrlm8TwvB8P8X7HP17uPQ4e9qPSPaO33J9ctFl6YdYGTW8pJmcBV0PA4+jrGXosiiasuTusjSzlLLmpyldXSSdzURqenayZ9Z/ZG3z2kurusYlLW3aniavRynEt33XKylZykTkWGjc8VqMVEk7Hvgendwz5N+aB2Hmfa+9nXXekmN657D1ETFaXmZUhxt+9ir1ea85V4RYKr4UsStX1d3MjVvaiu57UVSb9L+q3TvrRp1Pful+109gwN7uSK1W7mqjm/tMkjeiPjen1Y9rXJynKep/P7rpq3Wrqnq3Q3rDn+nHWjX36AzJa3t2I6dQ+Q2GlY4ZCy7jY1ZxNWkWL0WNO3w3/ADaiKdGewR0xuaJo22bLc17qdh13PYH5SOPqNmor2ctMbG2NLVmOOvEtaSTt9Ynuldwxqq/hUQC/+ouxXdR6f7LteNiglt4bE278DJ2q6N0kULntRyNVFVvLU54VF4+qHEOM9p3+6CO9niD2qchgfZ5n0hmKTP2MdEuZr5SSm13D42K97oWTKiKjeXOTlU9HL+Fe0esNG7k+k2543G057du1gMhDBBBGskksjq70axrW8q5yqqIiJ6qqn8k9P6IdFI+hlLWc1/c9/aVd1gXEOrJslXBZOtTZll7kiso59pI42NcrFVXQdqcKqtA/pPsHto+z/oGtarnOrG6x6ZZ2zXGbLUoX6lmSTy6tYr2I6OJUfI1XoiRp+N3HLWqfHUL25fZW6VSYGDf+rVbEz7Lj4srj67sZelmWpKiLHLLHHC59dHIvKJKjFVEX09F4p/Vul/V6z7THs4bH1e1q9lstq3TXIQZ7NsprYqVsurWtRH2Ws8Jszkc/5KiuXu45RfWr/au1n2hdx6t9XtGrdPuq7MZsOIrSarP03wuOpY/MeFVejkzmZkak8je7vb5TvXlO1GtVXN5DsnqF7XHs4dKlxXx91YxOKjzmGlz+MmcyaWG7RjROXwyRscyRy8p2xtVZH/zGuM/Qvab6C9TOmmS6w6b1NxVvT8M6VmSyc/iVG0nRoiuSZk7WSRrwrVRHNTuRzVbyipzyn0I6Vbg3qx7KeY2Tppn4K2odJbdO9YyGFniZicmjWRpFK6RiJDNwsiI13DlRV45RTU7t7PfVbd9R9rDXdY0G+2znOoOMzuGo3Ky0q+wVq6QyzRwySI1kjJOx7Vci9quXhV9eFDpvR/bL6C9aNX3DI9DOouP2PK6riLGSlpz0rVR6IyJzmOWKxHE98fc1Ec5nonKIqoqoQroV/dA+ie66x03wnU/qTrWH6lb1j4J34ajXspWjsTPc1kSyr4kcDndqdrJZUcqubxz3N5wdX6mZXrmuetY32K9u0x+L0a9jF2bb8JFjMpHK+ByR46hB2PmsQuX1VWvY1FROWcqiLVOT6MbjV/udXRfScZ0rzbNjxmyYDI5DEQ4Sbz1V/n3PsTSwIzxI1RHK57nInCKqr6AdN4f2jsXhsz1oyHUrctVh1fpdfrxyPxOOybrmOrvga9yXkfErJpFc7lvle9vaqc+vJ7aH7a3stdTuosPSnQ+seIzGz2YvGr1YIbCRWE8NJVbFYdGkMj0YvKxter07XoqIrHInNXUPpl1Iu6l7btal0+2WxNtlym7ARxYmw92Wa2pE1y1ERnM6I5FRfD7vVFQn3UnpfnIct7H0Os9PsilXT8vXbk0p4uRWYiumNRq+P2t/UM70RF7+1O5OPmBam7+257KvTjesn023brRhcVsWGrvs3qskU7mwo1nesazMjWJZuPlCjllVVREaqqiFuartGC3bWsZt+sXvO4jM1Ir1Gx4T4/FgkajmO7Xojm8oqLw5EX7ofzOfvK6B079qboPa6UXdys3szn85b3DHyU7GBggnZ4kaZG4si+BZhROG1+x0vLWojW/NO9fZbjki9m/plHKxzHJquN5a5OFT+92Ac2Z72yfaWz/UvqRU6LdPenec1/pVlFoZPUrdu6/c8zDErPGs0a8SdiRr4iIzujd6tVEV6qiJPOovt79P+nfX/p50U2CNcR8U4+O7l5b9K4trHT2WNSlT8JkXCSSSPRHP5VGdjkcjeUcnOPtOahld33DcqPUn2KN6ynVutdc3p91C6Y46zWx8sKuatGzettsOZHPG5qI90rXqxreUSJOFS1t2x/Wbpt1r9mvqVvfTzct8sYXUrmu7Pe1XGe8X18nZZA1ZZkRydsfcjnOlVeOGuVFcvoBfON9sf2a8v1Gg6R4zqhWs7hYytnCsxEePuLO23XarpWv/AFXDGIiOXxXKka9ruHL2rxi6j7bfssb31Md0f1PrFi8htaTy1mVG1rLIp5Y+e5kVl8aQSu9F4RkjldwvbyVz7LvTvdtO1/2isnHos9fYdk3fN3MTDm6LoIclH4KJW4WRrfErudz68q1e53C+qnKfTzROvGzdQugm1bR00651X6TtEFLYqWR1ynitVw6cP7HYrF0Y2uSFOVR9tWdioidzvVEQOwOhHt69LOtPVnqT06TNY7FxadJLNjJpY7MaXMdWaiW7s0ssbIoWtke1vY5UciIq8uT1Sxejvtbezn1+z+S1bpH1Sxufy+KYslim2CetKsaO7XSRNnjZ4zEXhFfH3NTubyv4k55J2/pv1a2PM+1p0IxnSrdIch1Ote/tc2BccjMDbiighTyzrzndjZpFRWozj6L3K3gwPZN6Q57O9Zda2PIap7U2Pn0rXLda1leqmdiixmPsTRJCtTHQOrK+1C5Wq7uZJE1iRRq5F5aih1Bn/b/9jvV87sWtZzrpha+R1VVbk4UrWpER6PRjo4XMiVtl7XO4VkKvcnDuUTtdxZ+p9Y+nG75vZdb1vYvHyWoLD75rzU56zqrZY/EjfzKxqSMcz1R7Fc38+T+WWyb8tP8Auf8Av3s+/odyGTsapmJmW92gfSn125YdkWqyetdY93mLrvEY3womK5vKo5WcKhfHtg4bqJ0837UM10grMZkuvmsxdMsorJnNnrWURjoLzY0T8fhQPsI79n0RPUDuHpr1M0nq/p9PfuneZdlsBkHSsq3VqzV2zeHI6NzmtmYxyt7mu4dx2uT1RVRUUlBHunukYTprouA6f65XbDjNex8GOrMROPwRsRvP8V45X81JCAAAAAAAAAAAAAAAAAAAAAAAAAAAAAAAAAAAAAAAAAAAAAAAAAAAAAAAAAAAAAAAAAAAAAAAAAAAAAAAAAAAAAAAAAAAAAAAAAAAAAAAAAAAAAAAAAAAAAAAAAAAAAAAAAAAAAAAAAAAAAAAAAAAAAAAAAAAFBb/AOwZ7JPVDfLHUveOjOPyGxXJmWLVll+5XjsSM44dLBDM2GRV4TuVzF7v53Je9SpVoVYaNGtFWrVo2xQwxMRjI2NThrWtT0RERERET0REPYAAAAAAAAAc+y+wF7H8/UReqkvRHFLsTsh70WTzltKq2ee7v8n43lv2vxdvh9vPrxyTmT2ceik/WZntB2NDqz9QIqyVIsxNZnkWGNGdieHC56wsd2ct72sR3CuTn1XmyQAAAAAAAAAAAAAAAAAAAAAAAAAAAAAAAAAAAAAAAAAAAAAAAAAAAAAAAAAAAAAAAAAAAAAAAAAAAAAAAAAAAAAAAAAAAAAAAAAAAAAAAAAAAAAAAAAAAAAAAAAAAAAAAAAAAAAAAAAAAAAAAAAAAAAAAAAAAAAAAAAAAAAAAAAAAAAAAAAAAAAAAAAAAAAAAAAAAAAAAAAAAAAAAAAAAAAAAAAAAAAAAAAAAAAAAAAAAAAAAAAAAAAAAAAAAAAAAAAAAAAAAAAAAAAAAAAAAAAAAAAAAAAAAAAAAAAAAAAAAAAAAAAAAAAAAAAAAAAAAAAAAAAAAAAAAAAAAAAAAAAAAAAAAAAAAAAAAAAAAAAAAAAAAAAAAAAAAAAAAAAAAAAAAAAAAAAAAAAAAAAAAAAAAAAAAAAAAAAAAAAAAAAAAAAAAAAAAAAAAAAAAAAAAAAAAAAAAAAAAAAAAAAAAAAAAAAAAAAAAAAAAAAAAAAAAAAAAAAAAAAAAAAAAAAAAAAAAAAAAAAAAAAAAAAAAAAAAAAAAAAAAAAAAAAAAAAAAAAAAAAAAAAAAAAAAAAAAAAAAAAAAAAAAAAAAAAAAAAAAAAAAAAAAABXftF/+4LqN/8A4tlP/wAaQ406L7duOj9Vek3SDbmXs5mdG0bN5nB3nxrxlsPPQgfVYr/kssb2SQOT9xq8ryf0GyONx2Yx9nE5ehXvUbkToLNazE2WKaJycOY9jkVHNVFVFRU4VFMBNO1FuUxebbq2HTI4Sq+jjLiUYvHo1no1HwwP7e6KNyMYitaqIva3lPRAORourXX6fVtey2s9T5dgzXUXQMltsNH3VQ8HA3KjIpmR1UZA2R1eRZHVnJZdK/uRqtkR3KLHtI9rvq11I6mUdbw2bWDB9Us3Qm0C1Wx0Urq+Iorxm1lVYlZ6rG5Gue9y8TNVvHCc9pa/080DUsjlsxquj6/hr+el8fK2sfjIK01+TlV753xtR0ruXO9Xqq+q/cY7p9oOIlxU+J0jAUpMEyaLFPr4yGN1Bky8ytgVrU8JHr+0jeO768gSAAAAAAAAAAAAAAAAAAAAAAAAAAAAAAAAAAAAAAAAAAAAAAAAAAAAAAAAAAAAAAAAAAAAAAAAAAAAAAAAAAAAAAAAAAAAAAAAAAAAAAAAAAAAAAAAAAAAAAAAAAAAAAAAAAAAAAAAAAAAAAAAAAAAAAAAAAAAAAAAAAAAAAAAAA1+vbBhtswGM2nXMjFfxOZpw5ChbhXllivMxHxyN5+jmuaqfkoGwAAAAAAAAAAAAAAAAAAAAAAAAAAAAAAAAAAAAAAAAAAAAAAAAAAAAAAAAAAAAAAAAAAAAAAAAAAAAAAAAAAAAAAAAAAAAAAAAAAAAAAAAAAAAAAAAAAAAAAAAAAAAAAAAAAAAAAAAAAAAAAAAAAAAAAAAAAAAAAAAAAAAAAAAIf0bu4bJdIdHyOuavLrWJta3jJ6GFmb2vxld1WNY6rkX5LG1WsVPu0mBH+nvxl8Aaz+kbynxZ7npe/vKceB7x8FnmfD49Ozxe/jj6cASAAAAABWmJ6m7nmsVTzNHScKle/XjtQpLn5WvRj2o5vciVFRF4VOURVTn6qZXx1vv/IvAf8AaGb/AMmVxe2a/pfs+P2/Fw15bmE1BMhXZYa50TpIqaPaj0aqKreWpzwqLx9UM251QxmtdJ6HU3bmuayfG0rMkFKPufNZsNYjIIWOd6ufJI1jUc7jlU5cicqXl9Pp62mvBHLzn+VXXNmtWJ4vp/CdfHW+/wDIvAf9oZv/ACY+Ot9/5F4D/tDN/wCTKbn9pvWK9CGGXR9sTaZ8/wDDLNS7KPvRb3g+P29/mfKKzy/E3eljtRi+q93LTyqe1NqOW16jl9d0nb8xkcjey9Kvga1epHkFTGTPitzKk1hkLY2uZ6cyo93e1Eb3KqJz9FpvZj4z/Lbjze19P4XT8db7/wAi8B/2hm/8mPjrff8AkXgP+0M3/kykM77WvTrD1ZcjSwWy5nH1tbqbdZuUa1dsVfEzvczzD0nmjd+r7FV7Ear+F/C13ComJ1f9ptNPrZunomr5DM2sDNiYb2WfWZJiqkl2eJrIJOJmTukWKTv5ZG5jO5ivc3ngTj00Rvwx8Z/ki+ef/X0/hfXx1vv/ACLwH/aGb/yY+Ot9/wCReA/7Qzf+TPkG/q+D2I+M/wAtfTZfa+n8Pr4633/kXgP+0M3/AJMfHW+/8i8B/wBoZv8AyZ8ger4PYj4z/J6bL7X0/hMNYzTdl1vE7EyutduVowXUiV3csaSxtf288Jzx3cc8GzIv0t/92Wo/9A0P/wAdhKCoy1iuS1Y7plY45m1ImfAABzbgAAAAACCp1P56w5DpP7j/APYdYi2Pz/mf2++w+HwfC7PTjs7u/uX58dv1K9wHtP5XeMJotXQuntS9uW9Yy3m4sTkM46rRx9CtMkUs1i6ytK9FV7mNY1tdyucrv2Wtc5AvwHOm4+1Huut9MN63ej0ow1nM9K32Wblhbm0TVmwpFWZZY+hYZRkS2ySKRqtWRkCp6o5GuRUTaZPrn1hx0HT3GJ0k06TY+odiylOp8b2m0a1eKollJJLPutZFkVOW9iQcIqJ+NefQL3BTWd619Qtf3DBdNLPTDDW9tzmpZvZI61PZpX00sUJazI6jZ30mPckvmW/rVib2K3jsfzymv6Ee1LT9oTZJcbpmj3K+Jw+Hhn2LIXbXY/F5qRyouI8FGKkk0SNesru9qN/V8I7v/CF6gAAAAAAAAAAAAAAAAAAAAAAAAAAAAAAAAAAAAAAAAAAAAAAAAAAAAAAAAAAAAAAAAAAAAAAAAAAAAAAA1uw7BitXxU2YzFjwq8XDURrVc+R6rw1jGp6uc5eERE9VUre5u2+55fFqSwa1Ud6xxJCyzc4+73u5iYv7qNfx/SUbtcXPb7JTl4dU1qKNIo1+XnJmdz5F/NsTo0b9vEf9zxJuLFWtYmY3mUmmOIjeer5hzPUOi7xq28yXnJ6+FksfXdG78v1DInJ/Hlf6yZab1Ci2G2/A5mh7rzUTFkSHxO+K1GnHMkD+E7kRVTlqojm8+qccKsPNZn69labcnjeG5PFP87Qk49WzMReG/wCC5OWOT6teqG9sdcnLbZtNK25LzBh4fJ183iKOZqc+BfrRWouf6D2o5P8AMqEH6p9f+lHRPLa3i+qe0M12La5bFfH5C5C9tBs0KRqsc1hE8OBXNk5asitaqMf6+hXzG3KUTosKSSOGN0sr2sYxFc5zl4RqJ81VfohWGR6m5zPyPZpMFepjWu7W5S7EsjrKf0oIUVv4Ps96+vzRqpwq5PVLNVczisLr2NuQ2aOyOdPPLDIj456EbUc5GuavDmvc+Fqqi8K17vuaZrWtajWoiIicIifJEJeHFXh4rJGOkbcUvhMlv7HeK3qLkHv+fhyUKSxfw4bCj+P/AJ/6ze4Hqdfp3YMTvNWtE2y9IoMtURW13SKvDWSscqrC5y+iL3Oaq+nLVVEXTHjcp1chUmo3oGT17DHRyxvTlr2qnCop2mlLcph0mtbcphcwIf0rzFvJ6t5LIWHT3MNZkxk0r15dIjOFie5fq5YnxKq/dVJgQL1mlprKJaOGdgAGrAAAAAAAAAAAAAAAAAAAAAAAAAAAAAAAAAQ/o3Sw2N6Q6Pjtc2iXZcTV1vGQUM1M7ufk67asaR2nKvzWRqNeq/dxMCH9G7uGyXSHR8jrmry61ibWt4yehhZm9r8ZXdVjWOq5F+SxtVrFT7tAmAAAAADn9urfHPQqLTPP+S9+6qzHeZ8LxPB8WojO/s5b3cd3PHKc8fNCGZXoDuW89LLPSPqnvOp5vCspU4MctDUJqr4p6r2PhknbPfsR2Gcxt7o+1nciqncnPpaPT7/cFrf/AERT/wC5Yb89DlrFrzv5qbHaYrGzlfavZ23Tp7qut5rpVgtcu7bhNu9+dmr6xQwlGKCStJXe1uPdagbZb4bkRUmvJJy5XNfw1sRgaz7HWT2Xpxrlnea+sw7ljcpsOSSHZ9crZ+pHDlbklh0c1ZszIlnZzE5HxyqxrmuRO9qnW4OXoqunpLKF2D2U6OV1/a9dxu3Q42tsugQaNGkOEgiZUSNZl8ykUDoouFWb+SYyNqcei+vp8bj7L+Wz8+frYDqUzEYja5MRbzFWXDealfbx7ouySGVZ2pEyRkLGPYrHr6IrXt+S36DPo6nHYABu0AABu+lv/uy1H/oGh/8AjsJQRfpb/wC7LUf+gaH/AOOwlBSZ/wDtt75+q0xf9dfdAADk6AAAAACkt19mrVOpXXGz1F6j6Tpm1YJNTiwtGpm8bHelr3G2ZJXStZNE5jGqx6J3Nd3coqccepENF9nLqd0lwvTXP6PY1W/tGlYC5rGSw9y/Yp4rIUZ7CTtWKzHXkkhkicxqt/vdzXI57VRPwuTpwAc4572deoG09GOtOHzWZwLd86xVbKSMhmmXF4tVptq1qzJli8aWNjWI50qxNVznvVI2pw1N/wBQvZ3p9S7/AEkrblgtW2DA6N5hczjcxVS3Dac+j4EaxRSROY/tk4d+Pt4T1T19C7wBQ+89Et0xvUTWt56H43TMTX1DR85reJxVp0lGrBbtzU31lbHXge1sDErPVyNRF/ZRGryqtwfZ+9m/cfZ622RcLufxDrWz41Le2Llrszrj9kR3L8hWb2OZ2To9zZI1cxGeFErUXlx0MAAAAAAAAAAAAAAAAAAAAAAAAAAAAAAAAAAAAAAAAAAAAAAAAAAAAAAAAAAAAAAAAAAAAAAAAAAAAAAAAAKdzMLqPUPZq03o68+pkouf50a12Qen8HVnf2p9z6Jh1C023sMVXM4GSOLNYvv8FJF7Y7UTuO+vIvHoiqjVR381zUX5coteV8/TWz7tybX4vJtT9ZQu8RTNX8k54e395iuav0UsMdvSVjbuS6TxV5NmYmWvxYrF28lP+xVhfKqfftRV4/ivyF/LYvFRePksjWqs+iyyo3n+HPzX8kM/VtWye5ZOrlcpRsUdfozNsRRWI+yXJSt9WKrF9WQtdw78SIr1anp2/tbzMVjit0bTMVjeejG132Z9KZr+MZls91LivNpwpZZU6nbJVgbL2J3pHDDfbFExHc8MY1rGpwjURERCjfa89gbK9d8VqXT/AKebZnMZhkykmTz+X2fec9nVqtij8OFlahbtSwySP8eVVeqxq1I+EeiPVF7XBW2nineUOZ3ndyf0y9lXTPZMxWt4DT9h2TL17q3Klyxl8lJLH5mVI5mrDXRUhrI7wJOexqOd+BHuerWqloFk7VrdPbMFZwlyWSHxkR8U8fHiV5mqjo5Wc/zmuRF+y8cL6KpUlm7e1qwmK3aFmPsI7w4rq/hp3Ps6ORfRqr9Y3KjkX5cpw5ZuC0WpFY6wk4rcVdu+GyB4vuVIoPMy2oWQ8c+I56I3j+PyMXHw5XepPdupOkZSk5bazbW/qYGfJUhVfSWX7dvLWr6uX0Rq9e7eejp5ymXR6FzsTnMsn8jk83NLCv0c2KKKsqp+SuruJ8YmJxVHB4yrh8ZAkNSlE2CFifRrU4T1+q/dfqpllfktx2myHe3FaZAAaNQAAAAAAAAAAAAAAAAAAAAAAAAAAAAAAAAj/T34y+ANZ/SN5T4s9z0vf3lOPA94+CzzPh8enZ4vfxx9OCQEP6N0sNjekOj47XNol2XE1dbxkFDNTO7n5Ou2rGkdpyr81kajXqv3cBMAAAAAFEa7XvV9fxlerm7kMEdOFkcTWQqjGIxERqK6NVVET09VVfuqnvcyL8fLVgyG5SVpL03l6rJlqsdPL2ud4bEWP8Tu1rl4TleGqv0U+sF/tJjv8Uh/0EKx6/QbBZyHTaDVsnj8flXbc3y1nIUX3K8a+Qt8q+Fk0Lnp28pwkjeFVF9eOFt75bxMy6V0+LhieFZaZJzp7dVu5yLNQY19qNFq90DXIqtWRPD5aioiqirxyiKR3F9Wun2c17I7dhOuGByGCxC8ZDKVctjpalNeEXiWZrVZH6Ki/iVPmhT2XxG6ut9Qq28Xsbsjob+s2cs3CYOerFPi2SK6ePyr7Fl8nDEerkR697eURv0Wb4TbdK6j9WsFsnSvZMVsFPGYi9UzeSw1iOzVax7oXV60k0aq1ZUejntj57mt7nKiI5O7T012fV8Xsw3uM669JM3Xv28N7Q+qX4MVXW3flq53FysqQIqJ4sqtRUjZyqJ3O4TlUM3XOrXT7cIZrGpdcMDm4q0sMEz8dlsdZbFLK7tiY5Y2qjXPd6NRfVy+iclNZZtl/s19RWUpoorDtty6RSSxrIxj/fS9quajmq5EXjlEcnP3T5k53+nvNHSMezftjwOYtrtuCdDNiMLNjYmRefr/AIXMltWVc7nle5HtThUTt9OVx6a7Hq+L2YWF8V4n3b75/STX93+a8j5vzFPwfM+L4Pg9/Z2+J4v6vt557/w8c+htu3Lf8or3+Sr/AP8AEc7RXsXN1YTq1HFKvTR2U8ok3jolRc52+B737Fb/ACPP97eJ3dvf+s7eP1h0gbRltPe2jT4p/wDMPDty3/KK9/kq/wD/ABDty3/KK9/kq/8A/Ee4M+kt4s+rYvZWHocMVfRtdrwM7I4sTUYxvKrw1IWoievqb00uk/7jMB/0XV/7ppuisy/rn3o1eVYAAaNgAAAAAAAAAAAAAAAAAAAAAAAAAAAAAAAAAAAAAAAAAAAAAAAAAAAAAAAAAAAAAAAAAAAAAAAAAAAAAAAAAAAAAAAAAAAABGupG25LRdIy214fTMxtl+hE1a2FxDGutXJXPaxrG9yojU5ciucv7LEc7heOF/nb7IPVDrd1X9u7bY/aa19aseZ1XIUcXgbESS4+q6nfhRYYUXuje6JW2WPdyru9Xo5UXlD+hnVTeY+mvTnYt6dVW3LiKEs9Won7Vu0qdteu396WV0cafL1enyNZ0r6VYjRNJ1DE5ejRyWwa5RlSTLy12OnW7aXxMhNHIqdzPHmV73o1U7uU554QRO3ODokeK0fSsFP5rB6hhMdMn/xKmPihd/a1qKbsAzNptzlmZmeoADDAec8EFmF9ezCyWKRO17HtRzXJ9lRfRT0AFH7JqGo6h7Qek5BNXxDMTuONyOBWHyUSRMytdEu1pGN7eEkdXiyKOcn4lSOP1VGpxd7WtY1GMajWtThEROERCp+vObv0sj0+weE0DEbTmcnsniYtuV2Gxh4KNmtUsTpOs0Faw9y9jHs7PD7XJIqO9OUXRM6/dRsrbwWr6x0u1uztV+/l8dka17bpq+OqyY/w/EWG3Hj5Xztd4reOYIlRUcjkRU4MzabdZZmZnqvYEQ6V71b6h6kmdyWFgxOQr3rmMvVK93zkEdmtYfDJ4U/ZGssaujVWuVjF4X1a1UVCXmGAAAAAAAAAAAAAAAAAAAAAAAAAAAAAAAAAAACH9G7uGyXSHR8jrmry61ibWt4yehhZm9r8ZXdVjWOq5F+SxtVrFT7tJgR/p78ZfAGs/pG8p8We56Xv7ynHge8fBZ5nw+PTs8Xv44+nAEgAAAAAUXhrUUWHoxubKqsrRNXtie5OUanyVE4X+KGZ52H+jP8A5B/+ox8H/tLj/wDFYv8AQQzTW/aN4tMbQ9Hj7NpNInino8vOw/0Z/wDIP/1DzsP9Gf8AyD/9R6g1/Eb+zDf8Mp7UvLzsP9Gf/IP/ANQ87D/Rn/yD/wDUeoH4jf2YPwyntS8vOw/0Z/8AIP8A9Q87D/Rn/wAg/wD1HqB+I39mD8Mp7UvLzsP9Gf8AyD/9Q87D/Rn/AMg//UeoH4jf2YPwyntSsrS2q3TsC1eOUxlVPReU/km/U3JpdK/3G4H/AKMq/wDdNN0drzvaZeZiNuQADUAAAAAAAAAAAAAAAAAAAAAAAAAAAAAAAAAAAAAAAAAAAAAAAAAAAAAAAAAAAAAAAAAAAAAAAAAAAAAAAAAAAAAAAAADnjq77V0vTLqje6b18Toc0tDF0ckyHNbyuLyuVdZkmYlfG0Upy+bm5h4a3xWdz5GN9OeQOhwQV3WnQkkz0Ec2bs2NYVkeVgpa9kLckEzmxvSBrYIX+NN2ysd4UXe/tXnjhFU09z2mujNDG08rb2LKMhuQTWuz4cyazVoYZ/AnkswpX8Sq2KX8MizNYkfzf2p6gY3VNE3Xqn096VsTxKdS0/d82z5p5fHuYlKN32V1+WvM37pTk+3KW2U3sfVro7p24bjm8Yk9/da2B7bb/L3UqWmUYJrcVBl10bqjJkZYllWFjvF7ZFe5ionKZ+A9ovQ9mo421jLiwTT269S9WyFO9UkgWapJZa6FH1v75Y5kTuyVvbC9Gv7ZFVvaoWqCssX7SPRzMYLKbHR2a4tDEVKt+V0uEvwyWK9leK0lWKSFJLjZXfgYtdsnc/8AAnLvwkt0ve9Y6g4yfL6rdsWK9W0+jYSxSnqSw2GI1XxPinYyRjm9yIqK1FReUX1RUQJAAAAAArzqz0T1HrLf1Jd4xeIzGI1nKTZObE5XFRX615X1ZoGtcyX8LVasqPRytd6t44TnlI9n/Z76H9SL2tY9dX0jJapoK5HGrq7cNUsUILMzIvwpEn6uvJGn4u3s7v1vP4eeVuQqbVv/AES9ovc9Z/Yqbxh6W3VG/JHXK3bj7/CflE3Erz93rz9OQlHSnp9+izUINDpZGvZwuJkfDhIY6SV3UsfzzFWeqOVJVjRVaknDFc1G9yK7ue6YgAAAAAAAAAAAAAAAAAAAAAAAAAAAAAAAAAAAAIf0bpYbG9IdHx2ubRLsuJq63jIKGamd3PyddtWNI7TlX5rI1GvVfu4mBD+jd3DZLpDo+R1zV5daxNrW8ZPQwsze1+MruqxrHVci/JY2q1ip92gTAAAAABR+D/2lx/8AisX+ghAet2V3KjW16hpc+1ss5HIyRTM1huIW/JG2vK/hq5VPLI1HNarueHcJ+En2D/2lx/8AisX+ghkS1Kk80FierFJLWcr4JHsRXROVqtVWqvq1Vaqp6fRVQrbztefe9lSvFiiN+6HOW2bF1rw9DB1r1vqms0GIvZC+zWq+rS5JI22GpC68ltq13SpEvCpS5b3d3oqcKTGhb3ncHxY+71cdq9jC4OhkbLsRXx8yX3TMe59iZ1iKVq1uWdqeCkXq2Re/hW9tuLUqraS+taLzKRrCk3YnejFXlW93z45RF4+XKEezPS/ppsdfG1Nh6d6xlIMM9ZcdFdxFedlN6qiq6FHsVI1VUReW8eqGOKPBj0Vo6TM/uq6HO77t+MyG9N6rZLWIcNgKWT8hUpY9+LsSLHLK+SZbFaSz4T+xvoydioxfwuR34i68LdmyWGoZGzXWCa1WinkiXn9W5zEVW+vr6KvBpcx0v6abDsdXcc/071nJ5+gkaVcrcxFea5AjHK5iMmexXt7VVVThU4VVVCTGJmJ6N6Vms85AAYdAAAWTpX+43A/9GVf+6abo0ulf7jcD/wBGVf8Aumm6Le36peHAAagAAAAAAAAAAAAAAAAAAAAAAAAAAAAAAAAAAAAAAAAAAAAAAAAAAAAAAAAAAAAAAAAAAABCurG1b9perWdl0XT9f2H3bXnuX4Mtn5sV2QRRq9VidFTs+I9e1U7XIxP3gJqCp9a65w4vT8Vt/X69086bQ7E2CTCsfuiTtttkiSTsV9qrURJURyfgYkn35JhtHVLplpFvH0N06i6xgLWWjkmoQ5TL16sluONEWR0TZHosiNRUVyt5REVOQJQDDo5jEZSWxBjMrTtyVFY2wyCdsjoVexHsR6NVe3uY5rk5+aORU9FKXyPW/rE5m65/Wej2qZPWtJyV2jYmn3WetkrTKjUfM+Kr7tfD3K1V7Wusoiqnq5vPKBegIkvVnppDNrVLJb1gsXkNwrx2cHjshkYa1zIMe1rk8GF7kfIvDm8o1F4VTV4/rPq0TN4yG55DFariNJziYaxk8pk44a0nNevMkr5JEY2LlbCMRquX1b8/XhAsEEVz/Vfpbqms0t02jqVquH17J9nkstfzNevStd7e5nhzvejH9zUVU7VXlE5Q+sx1S6Za9eweMz/UXWMZc2fhcJXuZevDLlOe3jyzXvRZ+e9n7CL+037oBKAR+51B0LHbbT0HIbvgK2z5CFbFPCzZKFl+xEnPL466u8R7U7XeqNVPwr9jWbX1Edqe/aZqFzDsdQ3CW5TjyS2u3wLkMKzRw+F2L3eIxkyo7vbwsfHC8+gTMFbTdaK1a7vD5NWylrF6barY2OfGQyXbOSvyRNkkrxV42cp2eJC1Xq7t5c5XKxrHON50v3+PqP0z1/qRLin4ePO4yLJOpyzNldVR7e5WOe1OHK36qnp9gJaCp+lvXG/1AzdKjl9Pr4WjsmKlz2r2Y8otqW/j45WRudYiWGPy0vEsL0Y10re2T9tFarS2ABS3UTofv+1bhtWZ1fqRruIw27YGrgMxQyOqS5GwkMXmEc+vOl6GNjnMsuRPEglRFaiqjk5aXSAKYyfs83Xaft2r4De30pNlz1TNRS2Kc0sTI4IasS1LUcViF9qGVtVUkb4kaPbK5rkVOe6MY/2Ytf0PWbeCtdQcNiaWXwuW1SmyLERUKsMuWu+LEyCJJkanY96RRwt9XfhRF5+fRxUm28711/1HTW/rMbodGXcsoiLynnp0lp4yNyfVO1clLwvydBEvCrwqBiX+hO4yfE2AxHVODH6ltMFuS5jVwDZba3bFNKzneadNx5dO1svhJE2TvTjx+xew+7/s8+ezdLM/F/Z5OHFw+H7v57vJ07lbnnxPTv8AOd3y9PD49e7lLjAHO+0+zzlMD0/rN1/I5HO5rXNcwGKxMNDH1vFku4q0s8NlY7NyCJ7HPVO+F08f4EciSo5UVJ17P+v71hdSymS6j0kpZ3Ys5bzM9VWQsdA2Tsa1jmQzTxsXiPntbNKjUVE8R6orls4AAAAAAAqbrh/6N7F036pM/CzA7LFhsi/6e78snklRV+jUtvx8qr8kSFefulsle9f9S2vfekOy6TpeLxF3K5yjJShXJ5SXHxVnPavbZbLHXnd4kT+yRjfD4VzU5c35gWEDn/od7TGT3Ho/ietXWuloPTrVcrVYlfI2Nyc5y20ldE+KdlipXigXvjfwjZpV59PpyWvmeqnTDXcLidk2DqPq+MxGekjhxV+5mK8Na/JI3ujbBK96NlVzUVWoxVVU9UAlINXido1nPrEmC2LGZLx6sd6LyluObvrPVUZM3tVeY3K1yI5PRVavC+hW+a6ndX7nUHZtK6a9L9RzNfV4qTrFvNbjZxcs0lmJZEbHFFjbLeEROO50icqvyQC3AV1hOvPTixoGs79uO0YbTYdo7YKtfO5WvVVbnKtfVY97mtle17XonZz3InKJwpnM6pYqDd9t1bNNqYrHalh6GYs5e1dbHD4VlbHd39yI2NrErcq9XKio76ceoTcEV/Sv0t+Cv0lfpK1X4R459/8Avmv7t/b7P/ae/wAL9r8P7Xz9PmeGT6ydIMLrWL3TM9VdPoa/nJGxYvLWs5Vip3nqiqjYJ3PRkqqjXKiNVf2V+wExBHs/1E6f6pfxGK2jetew93PyeDia1/JwV5chJ6J2V2Pciyu/E30Yir6p9zW9TOojum8OvZGxh2W8bls9Twt60614XkG2XLHHP29jvETxliYreW/ynPPpwoTMEEyHVSvjt8zOqOwtibH65gY8zlcjXSSeSKSWRzYa0daKN0kz3Mjlfw38XoxEaqvQ++j3U5OrepTbYmsZDAJFlchjPI5BW+Zb5aw+Huka30Y53Z3KzlVbzwq8ooE4BUmv9dbea3uDCy6jXratlMxkNdxGbTKK+xZyNJr1mbJUWFEjiVYbCMkSZ6uWL8TGI5qruOtvWOl0Y1N2xS6xmNgtPXiClj67lajUcxHyzz9qx14mI9FVz15X9ljXvVGqFhg+WO72Nfxx3IikM6sbVv2l6tZ2XRdP1/Yfdtee5fgy2fmxXZBFGr1WJ0VOz4j17VTtcjE/eAmoKn1rrnDi9PxW39fr3TzptDsTYJMKx+6JO222SJJOxX2qtRElRHJ+BiSffkmG0dUumWkW8fQ3TqLrGAtZaOSahDlMvXqyW440RZHRNkeiyI1FRXK3lERU5AlAMOjmMRlJbEGMytO3JUVjbDIJ2yOhV7EexHo1V7e5jmuTn5o5FT0UpfI9b+sTmbrn9Z6Papk9a0nJXaNiafdZ62StMqNR8z4qvu18PcrVXta6yiKqerm88oF6AiS9WemkM2tUslvWCxeQ3CvHZweOyGRhrXMgx7WuTwYXuR8i8ObyjUXhVNXj+s+rRM3jIbnkMVquI0nOJhrGTymTjhrSc168ySvkkRjYuVsIxGq5fVvz9eECwQRXP9V+luqazS3TaOpWq4fXsn2eSy1/M169K13t7meHO96Mf3NRVTtVeUTlD6zHVLplr17B4zP9RdYxlzZ+Fwle5l68MuU57ePLNe9Fn572fsIv7TfugEoBH7nUHQsdttPQchu+ArbPkIVsU8LNkoWX7ESc8vjrq7xHtTtd6o1U/Cv2NZtfUR2p79pmoXMOx1DcJblOPJLa7fAuQwrNHD4XYvd4jGTKju9vCx8cLz6BMwVtN1orVru8Pk1bKWsXptqtjY58ZDJds5K/JE2SSvFXjZynZ4kLVeru3lzlcrGsc43/AEq3r9J3TjXOoXueTFfEOOhyHkZJmyvreI3nw3Pb+Fyp8lVPT7ASoj/T34y+ANZ/SN5T4s9z0vf3lOPA94+CzzPh8enZ4vfxx9OCM9POs9DqNvW16fjNZzFCvrMNOVl7JVpKq30nfOxXxQSNbIkSOruRsjuEk/aais7Hv23Rulhsb0h0fHa5tEuy4mrreMgoZqZ3c/J121Y0jtOVfmsjUa9V+7gJgAAAAAq3FalZixlOJluNzWQRtRytVFVEanrx68f2mV8LW/8AhMP+c3mN/wBrqv8AzDP9FDJPJ31mbinm9BTUZYrERP0Rr4Wtf8Ji/wA4+Frf/CYv85JQa+uZfFt6zl9r6I18LW/+Exf5x8LWv+Exf5ySgeuZfE9Zy+19Ea+FrX/CYv8AOPha1/wmL/OSUD1zL4nrOX2vojXwta/4TF/nHwta/wCExf5ySgeuZfE9Zy+19Gw1islPWsTUSTvSCjBH3ccd3bG1OePp8jZmFhP9paH+Kxf6CGaetiZmN5edAAZAAAAAAAAAAAAAAAAAAAAAAAAAAAAAAAAAAAAAAAAAAAAAAAAAAAAAAAAAAAAAAAAAAACP9QcXezmhbLhcXB493IYi5VrRdzW98skL2sby5UROVVE5VUQkAA5g6m9Pet9zA6preqYbLxwpoUuBuS4aXCRyRX3QxtWC7PeZJM2m7t9Vpcyd7eV5TtVIh1bwux6h0+3vH5LR4Ng98dJMfh77X5XHtZr81avab2XGSTeIsMsj18J0Ec3dJG9F4RGuOziNbD0z6b7dncZtO2dPtazWawio7GZHI4mCzaoqju5FhlkYr4l7kRfwqnr6gZWpTW/c9ajaxNqp5OrWibLK6JWWP1LFVzEa9XIjVVWr3o1eWrwipwq88532W8ns+H6i5ae1stPP5TaruYxuN+MMhHhcvVRY3R1rdCGylVYbCMdHIjo0fw7l32XqEAcj9ROlXV/bthymUq651Bx+O37D4mCzhsPkdWhrYmSBqtfWvz24LFhjI3OV7JKCzeqvVGNciOfstz6NdWXZPLbVgV2StJS6gu2GtHr9jDPyV6o/DRU/Fg95sfUSRsvf+Gbwl7UerVRe1HdTADktvTPrrgtZ06lr+H3KBLNjO2MpLBc1abN0pb1hskbbU0tVlSGq/mR07KDHyNd2ox03byuFe6SdYcJoOm4bXNF2itsjdKo6/kJ8ZksFexcksCqqVsvUyar3VmPe5yS0lfO5r5k/CqMR3YJG8h1L6c4m0tHK7/rdOy1e1YbGVgjei/btc5FMTaK9Zb0x3yztSJn3Oddn6MdXLHU7LROl3e/htk2jFbEs2Iu65VwtVKzK3PmX2qsuUbJG6s7sbB3tc1Y298Xc9W3T161TY9n6fSWtIxkOQ2rXbtXP4GrLOyBti7VkR7YFlf8AhjSVvfErl9ESRVJ7QyOPytVl7F3q9yvJ+xNXlbIx38HNVUUyDPVrMTE7Sr/o3p2b1LphUx+ywMj2PJ+Zy2aY2VJETIW5HTTMR6ejka5/Yip6cMTj0MPo1rWxah0X0nQdjwFqHIQ4aPHZHwpq8jKD2wryr3JJ+NOU7U8Pv9VTnhOXJZgDChujOj9Q6GxarDuGq2cNT6c6vY1mG5LcqTR5uWSSBEs12wvc9kSRVWqvjNif3Scdio3uW+QAAMHLZzC4Ct53O5eljq/PHi27DIWc/wCE5UQ12H6gaHsVlKev7tgMnOvyip5KGZ/9jHKprNqxO0y6Vw5LV44rO3jtyb5VRE5Uqb2d/wD0mw+w9ZZvxv6jZmXKUHr9MNC1K2N7f3X14W2OP6Vp/qvJl+0ZlslB01m1DX7klXOb5cg1HGTR/wApBJdVWTWG/nBWSzY+S/yC+ilh4fEY7AYijgsPUZVoY2tFUqwM/ZihjajWMT8kaiJ/UbObMAAAAAAAAAAAAAcO9L9a636nhYukOPwOYq3dI2yzlZ0wLsHJlamLysMk8E0EmTR9ZsS23ZCOXw+ZexqIzle5pMdW1PeOluP6eP2PTEz+Sx2r5/D5PCx5nHeNTZPcjldkFWxNEyWr2ta2Z7EdI1JI+IlVXNSivaq/uguQ6CdfMzQwfR7P4/e0wFnW2w5hsS4/IR+dZJiclFJFIrpo2skvqsXDV7p0Z3tVr+O6tz1HpptGtYd/XzXNGzUmObHOr83j68lSC52IkkkDbXf4fK88fiVyJwiqvzEztzlmtZtO1Y3lHvZU85S6AdOcNPgX044NUx0jZonxOqoro/5GPhyP/C1GrysbWq1zeF55RI1tns4WOovUDqZnMrsG6az78pY2rg8ngNvyGOb3R1nNke+tUssjl7XqifrmKqoqo1ePVLhwe+aBnZWY/W9z1/IStTtbBRyMErkRPojWOUkJiLRbnDa+O+OdrxMT5uR9j6ZdY5qOq5rF6Pt2u+S1Wzp13XdLsaw5IO2ZOJWrl2TRJRnYxF/VvSdqJGj43ryjMnYPZ+6ny4jLUcOuUrPq4PSo6k1fI0LVu3LirE0tiBklmDwHyo1Y+x89dkT39vKNTuVvV4MtHJbOn/XXG6na2DE4TqE/K5bc4stfS9Y0+fZ4qzKK1/M1WJXZiIJVe2Nqor5XrF3L3te7sTzq9KOrOtdP8G5+nb0/Z6WW2RXZDVc3gZclHBeuPlTxoMojcfYgmb2OevDZI3tYjI2orlb1wAOPN56JdcbUbUmh2e58TaTi9aydDS5Nao4+vPAkzZWWfelaWSCsvjo5rqaSOaqScRKqM56O6h6C7d+k2V0Cady2rmK8vBYkekjmWmNRYpVd2tRVbK1jue1OVT5J8iagCqvZ51zfsfq+S2/qzg4MPu23ZB2Ry1CG4y2ymjI2QQQNlZ+F6JFE13KenL3fmZXSHAbNousZenmddsvs5DcMxdjignruVKlrISyR2HKsiN7Ujej1aiq9E5TtV34SywBQGr9PuoVbdsHquQ1e1X17VNszG1R7C63UdXyEVtLKwVo4mvWw2Vrrr0er42MRIuWvf3IiTnrNg9j6gdFtjwGE1+zHl8nVWGvQszQNkVySpxy9JFiTlG9yfj+SpzwvKJYwA+IkVsbGqnqjURTRdQcXezmhbLhcXB493IYi5VrRdzW98skL2sby5UROVVE5VUQkAA5g6m9Pet9zA6preqYbLxwpoUuBuS4aXCRyRX3QxtWC7PeZJM2m7t9Vpcyd7eV5TtVIh1bwux6h0+3vH5LR4Ng98dJMfh77X5XHtZr81avab2XGSTeIsMsj18J0Ec3dJG9F4RGuOziNbD0z6b7dncZtO2dPtazWawio7GZHI4mCzaoqju5FhlkYr4l7kRfwqnr6gZWpTW/c9ajaxNqp5OrWibLK6JWWP1LFVzEa9XIjVVWr3o1eWrwipwq88532W8ns+H6i5ae1stPP5TaruYxuN+MMhHhcvVRY3R1rdCGylVYbCMdHIjo0fw7l32XqEAcj9ROlXV/bthymUq651Bx+O37D4mCzhsPkdWhrYmSBqtfWvz24LFhjI3OV7JKCzeqvVGNciOfstz6NdWXZPLbVgV2StJS6gu2GtHr9jDPyV6o/DRU/Fg95sfUSRsvf+Gbwl7UerVRe1HdTGDls5hcBW87ncvSx1fnjxbdhkLOf8Jyogmducs1rNp2rG8uWW9M+uuC1nTqWv4fcoEs2M7YyksFzVps3SlvWGyRttTS1WVIar+ZHTsoMfI13ajHTdvK4V7pJ1hwmg6bhtc0XaK2yN0qjr+QnxmSwV7FySwKqpWy9TJqvdWY97nJLSV87mvmT8KoxHdRYfqBoexWUp6/u2Ayc6/KKnkoZn/2Mcqm/MRaLc4bXx3xzteJifNyjs/Rjq5Y6nZaJ0u738Nsm0YrYlmxF3XKuFqpWZW58y+1VlyjZI3VndjYO9rmrG3vi7nq26evWqbHs/T6S1pGMhyG1a7dq5/A1ZZ2QNsXasiPbAsr/AMMaSt74lcvoiSKpYoMtFf8ARvTs3qXTCpj9lgZHseT8zls0xsqSImQtyOmmYj09HI1z+xFT04YnHoePQ7B7JonSPQtM2HXrMeRpYuGlkEimgeyjIyJVXxHJJ+JFVEanh9/q5OeE5cljACvdc1XPUOuG67hbodmIy+EwtOnY8Vi+LNA+4sre1F7m9qTR+qoiL3eirwvGy6N3cNkukOj5HXNXl1rE2tbxk9DCzN7X4yu6rGsdVyL8ljarWKn3aTAj/T34y+ANZ/SN5T4s9z0vf3lOPA94+CzzPh8enZ4vfxx9OAJAAAAAAieN/wBrqv8AzDP9FCtOvWX3ehV1rHaLY3CO1k8nJDOzVGYZcjJEytLJwxcunlUajmNV3PDuE4b6ll43/a6r/wAwz/RQ+5qVOxPBZsVIZZqrnPgkfGjnROVqtVWqvq1Vaqoqp9FVDxfFw3mdlxEb12cxbjs3XjCY7AVchc6trPXw2QyWQZq1bUZcokbbLUgdfS41azpUiXhzaPLVd3eip2qbO3nutWa2fD46rmOo1iKLBYezem0hNUdQ8edZfElndlG+M5HIxFTy3Le1Hdqcq3nopadNbiZBasPmkjWFJ/DTxEjVUVWd3z7eURePlyhDM70J6IbRYqXNm6N6Nl58fEkNSW/r1Ow+vGjlcjI1fGqsb3Kq8JwnKqv1OkZq99Y+DHBPirbX8t1tzHU6/PSvb9LgqewW6r3XGa03XPJQyOY5rEjb728VGpw1XfhWRPVfDI30+6kdY4J1zGat7/ba7WrmdWvtMGusxl1rYlVi41cY1LblSTw+W2FRzYnp3oj3N56ep47H46F1bH0a9WJ73SOjhiaxqvcvLnKiJxyqqqqv1U8G4HBMZj42YWg1uJXux7UrMRKi9ix8xen6v8DnN/Dx+Fyp8lMelr04YOCfFSOfz2+aBjY8pX62Wtxds2EyN6CKxQxzWUVhqPnZco+WgYq10escatsLPz4sP6znnxJjpUe16rvFbUM51PzG5wZTCT5ZX5mrj4rVOSKaCNqMWjWrsWN6TP8AR7HO5j9HccokhwnSbpZrMuan1vppqmKl2RHNzL6OGrQOySOVyuSyrGJ43Kveq9/P7bvupkaV026ddNqtmj060HXNWrXJElsw4XFQUWTPROEc9sLWo5UT05X14MWvWY2j6QzFZ3SMAHFu22E/2lof4rF/oIZphYT/AGlof4rF/oIZp7av6YUkgANgAAAAAAcj9fs5jH+0Nktb2rMdX3Y6Pp6y7jKGg2NjV7cgtuZviuiw69qOVEa1HWE8PlERV+ZX23bjvusZvFT9dsH1h2Jdd6TUsxn6OibbPjJKVtLMjZbViKvkanjv7GojvD8VUVrl7UROQO+Qcj6Zf3fe8x0g6O731HyU+JyeiXdqvXsFnbVS3mpY54I60fvGs6OdWxRTtdKsb2rI9zVcqt9Hx/PZvabGzO6IzdQNrsa9g+ruK1+C7V2K9WybsbZxS2n0Z78MzLUyskfz3ukV6sdGjnOVOVDtgFH9F5srq3WPqR0gi2LO5nXMFVxGWxbs3k58laovuMmSat5qw588sfdCkjUle9zfEVEXt7WpeAAAAAAAAAAAAAAAAAAAAAAAAAAAAAAAAAAAAAAAAAAAAAAAAAAAAAAAAAAAAAAAPmSSOGN000jWRsarnOcvCNRPmqr9EPohHWezLB04ykET1Z7xlp4t7kXhUjtWoq7/AP6ZXGt7cFZt4O2nxeny1xe1MR8Z2QPLZ3JdT5X3blizU1ZyubSx0b1jW/Hz6WLCp+JWu+bIuUb2qivRVXhvvTxmNx1dKmPx9arAicJFDE1jET+CJwZDGMjY2ONqNa1ERrUThERPoh+lZMzad7dXsqxXHWMeONqx3f7rPm07teTHW3ZjUbS4DLco7zFRiJHPx/Nni/ZmavyXlO5E/Zc1eFLU6f7ku5YeSa5TSllaEy1MjUR3ckUyIio5q/WN7Va9q/ZyIvCoqJAzVY3dcZoHUms/JVM3PBsuMdXczE4O7k3pPXnjSJ8jKkUjoo+2zIizPRsbfwo5yctReuC80tER0lC7RwV1GC1p/VWN4n3dY923z/dfAIfsHVTWNazNvA5HF7hNZpU/PSPx+m5e/XdH/RjsV6z4pZPX+SY90n7pHE9pHp4sTpk13ql2tc1qovSnaEdyqKqcN938qnovKonCenPzTmweUWmQrqRu17XY6mC12KKXO5bv8B0qd0dSBvHiWZG8oqo1XNa1v85zkT0RHKnIPtC/3R3M+y57Rselbvpsmx6BsWFx+dxr6uPsY7MYuKViskY9llGssr4kL39ipErFkVjno6NWJdmtbxjOqWay3ULFVsjBStQ0KtKLJUpKlmOv5WOzw+KREcxVfaf9OHIiKiqnCnDUXmlOXesuy9PXUZ5443isb7ePOI+ss2prOPZa965R0mXyzk/WZK/xLO5f3VVOI2/uMRrU+iGVk8Lh8zD5fLYurcj+jZomv4/NOU9F/NDNBA2h6jjtvvui9HHWMJ1O03YNjz1/I61hFu1sdBZeknuy/cZHDHO+V343xpGk0Le5VVnm3cqreOzoso/NYyHM4e7ibH8ncryQuX7dzVTlPsqfPkk/T3rHhdk6aM3G3jtrV2LoVn5JF1LKpLNM6JqvWpEtfvvM5VeH1myscnqiqi8kvTXmd6Sou2NPWIrnrG0zyn7T7+u/87rJBD7vVTWKGGwmenxe4OrZ+RIqjINNy81iNV+tmuyss1RP3p2Ron3Nh8cYX4y+BPJbB7y8v5nx/h7Ie7uzjnj3h4PlO/8Ac8Xv+nHJLUSQAh9LqprF/DZvOwYvcG1sBIsVtk+m5eGxIqfWtXfWSW2n70DJEX7i71U1ihhsJnp8XuDq2fkSKoyDTcvNYjVfrZrsrLLUT96dkaJ9wJgCP/HGF+MvgTyWwe8vL+Z8f4eyHu7s45494eD5Tv8A3PF7/pxya+l1U1i/hs3noMXuDa2AkWK2yfTcvDYkVPrWrvrJNbT96BkiL9wJgCH3eqmsUMNhM9Pi9wdWz8iRVGQabl5rEar9bNdlZZaifvTsjRPubD44wvxl8CeS2D3l5fzPj/D2Q93dnHPHvDwfKd/7ni9/045AkAIfS6qaxfw2bz0GL3BtbASLFbZPpuXhsSKn1rV31kltp+9AyRF+5x51+/ujmZ9mXrzQwW56a/YenG4YapncT4FCxi8/iYlV8EzJ6ttGOkVZa8j2skZCvEnHevbwBdPtcdHemvWCTTKWfwKWduw2ViyuFyEXY19CGCRj5lmVUXvrvVGMWL0V7nN4Vqor27CprOPZa965R0mXyzk/WZK/xLO5f3VVOI2/uMRrU+iGFrW8Yzqlmst1CxVbIwUrUNCrSiyVKSpZjr+Vjs8PikRHMVX2n/ThyIioqpwpJCty3nJed+56/Q4K6bBXh62iJmfHeN9vdt3fuwsnhcPmYfL5bF1bkf0bNE1/H5pynov5oZeq7VldEytTFZXIWchrOQmZViltSeJLipXcNjRZHfifA53DfxKrmOc31Vq/h+jCzWMhzOHu4mx/J3K8kLl+3c1U5T7Knz5NImaTxV6pF6Uz09Fl51n5ecef+6LwBoOn+Ys7Foet7BcXmfJ4inclX9+SFj1/zqpvy0rPFG8PF5KTjvNLdYnYABloAAAAAAAAAAAAAAAAhXUjdr2ux1MFrsUUudy3f4DpU7o6kDePEsyN5RVRqua1rf5znInoiOVK6qazj2WveuUdJl8s5P1mSv8AEs7l/dVU4jb+4xGtT6IbHLTOyHUrbLc68ux8lPFQ8/zYm1Y7Hp/F9p3P8E+x7FblvOS879z1+hwV02CvD1tETM+O8b7e7bu/dhZPC4fMw+Xy2Lq3I/o2aJr+PzTlPRfzQy9V2rK6JlamKyuQs5DWchMyrFLak8SXFSu4bGiyO/E+BzuG/iVXMc5vqrV/D9GFmsZDmcPdxNj+TuV5IXL9u5qpyn2VPnyaRM0nir1SL0pnp6LLzrPy848/90XgDQdP8xZ2LQ9b2C4vM+TxFO5Kv78kLHr/AJ1U35aVnijeHi8lJx3mlusTsAAy0CH9G6WGxvSHR8drm0S7Liaut4yChmpndz8nXbVjSO05V+ayNRr1X7uJgQ/o3dw2S6Q6Pkdc1eXWsTa1vGT0MLM3tfjK7qsax1XIvyWNqtYqfdoEwAAAAAQKhnajKNdqRzO7YWJyiJwvon5nv7/qf7zP/Y3/AFkbof8AsNb/AJln+ih7lFbQ4t5cI7Sz7dze+/6n+8z/ANjf9Y9/1P8AeZ/7G/6zRAx6jhZ/Es/l8G99/wBT/eZ/7G/6x7/qf7zP/Y3/AFmiA9Rwn4ln8vg3vv8Aqf7zP/Y3/WPf9T/eZ/7G/wCs0QHqOE/Es/l8G99/1P8AeZ/7G/6x7/qf7zP/AGN/1miA9Rwn4ln8vgsXBOa/CY97V5a6pCqL907EM41utf7nMV/iUH/dobIvojbk61neIkAAZAAAAAGjj0rWYt0m6hR43jYLGNZiJLnjSfiqMkWVsfZ3dicPc5e5G93rxzx6HnLoWoz7Zb3efDMlzN7FJg7M8kj3NlopI6RIViV3h8dz3Lz28rzwq8ehIABWEfs1dGa+m4TQqOsXaGK1mxLZwjqOcyFW7i3SOcr21bsU7bMEa97m+HHI1nbwzt7URqfVv2b+j1zT8fo/w5fq43GZT33XmpZ3IVL/ALx/FzbfehnbalmXvd3SPlc53Pqq8IWaAIxofTXT+mtK3S1OhbY7IWPNXbd/JWcjduS8I1HT2rUkk8qo1Ea3veva1EanCIiEnAAAAAAAAAAAAAAAAAAAAAAAAAAAAAAAAAAAAAAAAAAAAAAAAAAAAAAAAAAAAAAABHOoeu2dr0vK4Oi5rbksKS01cvDUsxOSSFV/LxGM5/IkZG+o/UPUuk+i5rqPvWVZjsFgKjrl2w71VGp6I1qfNz3OVrGtT1c5zUT1VDFoi0TEt8WS2K8ZK9Ynf4KywmXr5zGxZGu1zO/lksT/ANuCVqq2SJ6fRzXI5qp90UzjkP2KPaU2r2uOrHVy1BepYG9FYgzGCwU0LfLyYxf1D2zOY1H+MxWwKs6dyudM5Fb2oxretJMf1HrOWGx0zv2Hp6eJRyVJ8K/wWWWJ/H/yf1FdbHek7TG71uHWafUV4q2iPKZiNvjtv74+XRkGb0pqLm9qy24x8Oo0YPctKVF5SWTxO+05v3ajmQs5/pRvT6GPS6dbvs6pHsc0Wt4xyp4sNOz416dv1YsiIjIEX5KrFe7j5OavqlqYvF47CY6tiMTTiqU6kbYoIYm8NYxPkiIdcOK024rRyhC7R12OuKcOKd7T126RHv75ny7t2UACa84rVvs59HJOrmQ66ZPTK2W3W8ldkeTyTnWloMhibHG2pHIqsrejVcro2o5XPeqqvPBp93qLrnUaW3PwyltcMToZFX089AzsfGv5uhbG5qfXwpPsXEavZdaxG24ibCZuss1abhyK1ytfE9q8tkY5PVj2rwqOT1RUOWbH6Su0dU3QaqNJm4rfpnlPu/qdpVgD9t6R1G1xfAqQV9rpM9I5mzsq3uPtIx/EL1/ea9nP9FDwhxPUrIO8Cp08mx7l9PGyuSqsib+f97vmcv8ADhP6iBNLxO0xPwemjPgtHFGSu3viPlO0/Jrtmt2mY9MXiuHZbLv8hjY+fV070VEd/gsTukcv0axyl2YPE1sBhcfgqXPl8dViqRc/PsjYjW/5kQjGk9N49dvP2LO5H3tnZY1ibP4fhw1I147oq8fKq1FVE7nKqudwnK8IjUmpMwYppva3WVF2praaiYx4udY7/Gf4ju/cABIVIAAAAAAAAVq32c+jknVzIddMnplbLbreSuyPJ5JzrS0GQxNjjbUjkVWVvRquV0bUcrnvVVXngsoAU7u9Rdc6jS25+GUtrhidDIq+nnoGdj41/N0LY3NT6+FJ9j8LP2XWsRtuImwmbrLNWm4citcrXxPavLZGOT1Y9q8Kjk9UVCsbekdRtcXwKkFfa6TPSOZs7Kt7j7SMfxC9f3mvZz/RQgZsNq2mYjeJem0GuxZcVceS0RaI258omI6c+nTlz/8An4ajZrdpmPTF4rh2Wy7/ACGNj59XTvRUR3+CxO6Ry/RrHKYG7bBuela3PtGT6cX6NCrPWis2b1+okdaOaeOFZ3pBLK5Y4/E8R/CcoxjlTlU4LU0npvHrt5+xZ3I+9s7LGsTZ/D8OGpGvHdFXj5VWoqonc5VVzuE5XhEamlMVsk7bbJOfXYNNXi4otPdETE7+/blEePySfB4mtgMLj8FS58vjqsVSLn59kbEa3/MiGcAWURtyh5G1ptM2nrIAAwAAAAAAAAAAAAAAAAp3d6i651Gltz8MpbXDE6GRV9PPQM7Hxr+boWxuan18KT7H4cY+0d/dFGb31u0foR0rw9iDTre242pnNlu0VjkyLG242zRUfFbzExqKqLOiJJ3cKxWInc/s+3pHUbXF8CpBX2ukz0jmbOyre4+0jH8QvX95r2c/0UIGbDatpmI3iXptBrsWXFXHktEWiNufKJiOnPp05c//AJ+Go2a3aZj0xeK4dlsu/wAhjY+fV070VEd/gsTukcv0axymxhxPUrIO8Cp08mx7l9PGyuSqsib+f97vmcv8OE/qJppPTePXbz9izuR97Z2WNYmz+H4cNSNeO6KvHyqtRVRO5yqrncJyvCI1NKYrZJ222Sc+uwaavFxRae6ImJ39+3KI8fkk+DxNbAYXH4Klz5fHVYqkXPz7I2I1v+ZEM4AsojblDyNrTaZtPWQABgI/09+MvgDWf0jeU+LPc9L395TjwPePgs8z4fHp2eL38cfTgkBD+jdLDY3pDo+O1zaJdlxNXW8ZBQzUzu5+TrtqxpHacq/NZGo16r93ATAAAAABUtD/ANhrf8yz/RQr7rXvWyaTQwnwzdhpzZS+6tLO/U8hsbmMbBJJ+GlQkjncqqxE7kXhqKqqhYND/wBhrf8AMs/0UPO3iqF65RyFqv32MbI+Ws/vcnhvcx0bl4ReF5a5yevPz+5XTysqq8lH5jqn1OpbPjdaj2ejE5+NoWp54ekWw5FLElh8iKrkr2v9jkRGNTssK5yKrlVeEVEkGT654lOsD+j+P23Uq2UkrLUggs2kkvtyboHWGOWmkrHyV0ib6qipy5e3vThSU7P0l1Dbc6myZOzs9W/4UcD34ja8ri2SsjVysSSOpYiZJwr3ermqvCqnyNq3SNYbin4X3aq1JL/vNyLYlV62vH8fxfEV3f3eIiL8/wAvl6Gd4bb1QHV9o6u1Fks7rseoZWBdiZgY48XrlrHvaiTdj5VdJenR3KfJqNThfmrvkYHU3q7uGuZe9hsHZpUG18xBQba+EslsUiROx/mXKtOhKyZ69/p3oqNa31VF+ZZWW0LVc5g7+u5DHSLSyVl1ydIbc0MrbCvR/ixzRvbJDIj0RzXRuarVRFaqHhrfTbUdVgqRYqpekfTtS3WWb+UtX7T55I1ic+WxYkfLKvhr2J4jndrUaicI1ERvBvCob/WzqI/VNQydPJ0qsmwR37KZGHptm8wl2tE+NIJmYyrYS1UbIyTvXxnu7eERfVyF5azYyNvXcbby1uOzdmqxyTzR42bHtkerUVVStM98sH/Nvc5zfkq8oRzOdG9Fz7YW2Is7QWCxZtRPw+yZLFvY+wrXTIjqk8buxzmtcsfPZ3fi7eVVSU4bE1cDiquGoy3Za9OJIo33bs1ydzU+r5p3Plkd+89yqv1UxMxPRiZiejNABqwsHWv9zmK/xKD/ALtDZGt1r/c5iv8AEoP+7Q2RZys6fpgAAbAAAAAAAAAAAAAAAAAAAAAAAAAAAAAAAAAAAAAAAAAAAAAAAAAAAAAAAAAAAAAAAAAAAAAAAAAAAGq2XWtX2zESYfccBi8zi1fHPJVydWOxXV8bkex6skRW8tc1rkXj0VqKnqhtSvfaG2C3q/Qrfs3jV/2Qh129HQTnjuuSQujrt5+nMr40/rArn2W+jXTd+qad1/i1GtT3HPYzIZNMlWV9eSWnl7j8h4MzGKjZmtSWNGJI13Z2oje3g6INXquv1NT1jD6rj04q4ahXx8Hpx+rhjaxvp/BqG0AAAAAAAAAAAAAAAAAAAAAAAAAAAAAANRuGrYfedTzWlbBXSfF5/H2MZdi9PxwTxujkT1+7XKRL2f8AacvtXSjCv2efxtiwvj6/nnqior8nQlfVsycL6o2SSF0jfnyyRqoqoqKtiFSah/6Fe0HuemuVI6O84+vumNbz6LbgSOjkmtT6IjW4yRePm6xIqoiry4LbAAAAAAAAAAAAAAAAAAAArfr7s+ZwPT9+F1O06vs+43YNXwUrf2oLdtVa6yn3SvAk9lf3a7vn8gK9wnSjQvaZs7b1G6k4FmXw+SztSpq3Mr4pK1HDTvSKzDKxWvjWa467J3sVqvhkiRVVODoo1Wp6xhdJ1fEabrlRtXFYKjBjqMDflHBDGjGN/qa1DagAAAAAAAACH9G7uGyXSHR8jrmry61ibWt4yehhZm9r8ZXdVjWOq5F+SxtVrFT7tJgR/p78ZfAGs/pG8p8We56Xv7ynHge8fBZ5nw+PTs8Xv44+nAEgAAAAAVVUp5GKpDFJiMkjmRta5PJS+ion+Cevlr3/ABVkv+ozf+EtAHGcFZndF9VjxVf5a9/xVkv+ozf+EeWvf8VZL/qM3/hLQBj1enmerR4qv8te/wCKsl/1Gb/wjy17/irJf9Rm/wDCWgB6vTzPVo8VX+Wvf8VZL/qM3/hHlr3/ABVkv+ozf+EtAD1enmerR4qv8te/4qyX/UZv/CPLXv8AirJf9Rm/8JaAHq9PM9Wjxa/X4pIcDjYZo3RyR04WvY5OFaqMRFRUX5KbAA7pMRtGwAAyAAAAAAAAAAAAAAAAAAAAAAAAAAAAAAAAAAAAAAAAAAAAAAAAAAAAAAAAAAAAAAAAAAAAAAAAAAAVR7RP+yWD07S09V2jecDUc3+nDVtJkZ2fwdDQlav7qqWuVRvP+zXtCdLtfT8TMLj8/tUn2ZJHFBj4ufzc3J2OPya4C1wAAAAAAAAAAAAAAAAAAAAAAAAAAAAAAACpPaA51j4M6wQ8t+CNhg95OT64i/8A3lc7v3I/GhtO+v8AeafP5LbZqNw1bD7zqea0rYK6T4vP4+xjLsXp+OCeN0ciev3a5QNuCJdJWbtB001un1Ir+HtFPHxU8s5JWSJYsxJ4b7DVY5ydsqs8VE5VUSREd6oqEtAAAAAAAAAAAAAAAAAFR0P/AFh+0Peyn8rhellD3ZXX+Y/PX42S2HJ+9BSWuxF5/wD66ZFTlOSd9Q92xfTfRs7vmaZJJTwVCa7JFEnMkysaqtijRPVz3u4Y1ERVVzkRPmaTojpOT0Tpzjsdsb2S7HkpJ81sEzF7kkylyR09rtX6sbJI6Nn0SONjU4REQCeAAAAAAAAAAAQ/o3Sw2N6Q6Pjtc2iXZcTV1vGQUM1M7ufk67asaR2nKvzWRqNeq/dxMCH9G7uGyXSHR8jrmry61ibWt4yehhZm9r8ZXdVjWOq5F+SxtVrFT7tAmAAAAAAAAAAAAAAAAAAAAAAAAAAAAAAAAAAAAAAAAAAAAAAAAAAAAAAAAAAAAAAAAAAAAAAAAAAAAAAAAAAAAAAAAAAAAAAAAAAAq/2jupmV6TdN02vD57WsHK/M4vGy5TY4XS4+jDZtxwyTzNbPAqoxr1X1lYnKJyvBS+R9ovJ08I7b4OpHRi3KzY6Wrt6nR4l/uHyM8L55Y+PePPMUrGtciXVZ3PaqojkVqdL7tpGK33HUcZmLFuGKhlaOXiWs9rXLNVnZNG13c1ydiuYiORERVTnhUX1NXNU0zrBXw+ex+Wtz19V2WxLDJXasTXX6EtinPE5JGcuY2VJmqreEVWctcqfMND0A6mZfqXhc7ayOz6rtdbFZZaNLZNVrvgxeVi8GN6uha6xYTmN73xPVs0je5i+qLy1LTI3qui4zTslm7mEvXo6Wbteedi3OjWnUsOT9dJA1GI9niu/G9vcrVf3ORrVc9XSQAAAAAAAAAAAAAAAAAAAAAAAAAAAAAAHHFXo1k+oXWPqhlsP0r6bNtwb1VczfLtx7NjxaRUqD3JVjZRcruGoqN5uRoviO5bxyjuxwBwlJpters+a6g5Do/wBO8dQh6q2HW+py2v8AZ/ERxXmu5kjSkjmwuVqVu/zataybue1GI5DuxrmuajmqioqcoqfJUIP1g3nLdN9Xp7jRrVJ8dTzOOhznjscrocZPYZBPPGqORGrD4rZnKvcnhxSJwqqipOQAAAAAAAAAAAAAARHqh1GqdLtYZslrXMxnnz5CnjK2PxPl/M2LFmdkMTWrZmhiRO56cq6RqInJLiu+unTK31b0ynqVW66oxmexORsyR5CxRl8vWtxzSpFPWVJY5FaxUa5rmrzx+JvzAgHUPqtr+3YPG4raelvUWDMYzb8S12nRSYhLly01HW6fiyLcdTfWV0KS/hsovfA1F44Vq2p066jRdQIMqyfVM5rGUwd3yORxOZSstmu9YmSsd3VZpoXtdHIxyKyR3zVF4VFQgO4ezJrWSw+C1/WLGYq1YdorZ3NXbO2ZZ+WtRxQSRojMiszrnencxGp4zURqORFRF4WS9G+mF/pR8R4FLfvLEXsm7J0Mpeylq9l7HitRHxXZbHc6VYu1sccniuVYkY1WorO54WQAAAAAAAAAABH+nvxl8Aaz+kbynxZ7npe/vKceB7x8FnmfD49Ozxe/jj6cEgIf0bpYbG9IdHx2ubRLsuJq63jIKGamd3PyddtWNI7TlX5rI1GvVfu4CYAAAAAAAAAAAAAAAAAAAAAAAAAAAAAAAAAAAAAAAAAAAAAAAAAAAAAAAAAAAAAAAAAAAAAAAAAAAAAAAAAAAAAAAAAAAAAAAAAADGyeRqYjG28tflSOtSgksTPX+bGxqucv9SIpXXsy463j+gWiy5GJY7+Vw8WavMX5tt3ubc6L+fizvPn2nbtqp0C3enQlWK7msW/AU5G/NlnIObShVPzSSwxU/PgsmhSq4yjXxtKJIq9WJkEMafJjGoiNRP4IiAe4AAAAAAAAAAAAAAAAAAAAAAAAAAAAAAAAAA1G4ath951PNaVsFdJ8Xn8fYxl2L0/HBPG6ORPX7tcpEvZ/2nL7V0owr9nn8bYsL4+v556oqK/J0JX1bMnC+qNkkhdI358skaqKqKirYhUmof8AoT7Qe56a5Ujo7zj6+6Y1vPotuBI6OSa1PoiNbjJF4+brEiqiKvLgtsAAAAAAAAAAAAAKr9ofIXb2p4/pZhLMkGW6lZButRywrxJWovY+TIWWqnq1Y6cdjtd6cSuiTlFchahUem89Qeum079IqSYjR6/wbhF45a669Y58rO37/iSnW54RUdVnTlUcBamPx9LE0K2LxtWOtUpwsr14Y28MijY1Gta1PoiIiIn8DIAAAAAAAAAAAAAQ/o3dw2S6Q6Pkdc1eXWsTa1vGT0MLM3tfjK7qsax1XIvyWNqtYqfdpMCP9PfjL4A1n9I3lPiz3PS9/eU48D3j4LPM+Hx6dni9/HH04AkAAAAAAAAAAAAAAAAAAAAAAAAAAAAAAAAAAAAAAAAAAAAAAAAAAAAAAAAAAAAAAAAAAAAAAAAAAAAAAAAAAAAAAAAAAAAAAAAAAAqjrx/srf6Y6Un4kz++Y6aRn/8AbxsU+VRy/kkmPiT/AAnN+5a5VGx/7N+0xpWMT8UOtarms1Mn9GxYnp1qy/5NLyf/APKWuAAAAAAAAAAAAAAAAAAAAAAAAAAAAAAAAAAAAqT2gOdY+DOsEPLfgjYYPeTk49cRf/vK53fuR+NDad9f7zT5/JbbNRuGrYfedTzWlbBXSfF5/H2MZdi9PxwTxujkT1+7XKBtwVf0L6hJmemur4/ds7Tj26GS1rOQimmbHLdy2NdJBcWKNy9z+5a8k6InP6tyO5Vv4i0AAAAAAAAAAAAiHVvfP0adO81uUNNLt2pC2HG0lXjzuQne2GpWT1T1lsSRRp/hn10m0ROmnTrB6W+6t63Qrq/IXVThbt+V7prdlfRPWWeSWRfT5vUiG3c9Qeu+saKxPExGh1k3DM8erXX5fEr4uB3344uWFTnlHQV14/EiluAAAAAAAAAAAAAAAh/Rulhsb0h0fHa5tEuy4mrreMgoZqZ3c/J121Y0jtOVfmsjUa9V+7iYEP6N3cNkukOj5HXNXl1rE2tbxk9DCzN7X4yu6rGsdVyL8ljarWKn3aBMAAAAAAAAAAAAAAAAAAAAAAAAAAAAAAAAAAAAAAAAAAAANLsWZs0fBx2Max1+53divTlsMaftSuT6onKIifVVT6cqnHPnppsc5cnSG9KTktw1bO5fo4+Lx79yCtH/AE5pEY3+1TGpbDgMjJ4OPzmPtSf0IbLHr/YikdrYWnFJ5uyi3bip+K1Z4fIv8F+TU/JqIn5Hvbx9G/H4V2nDO37SMR3H8OfkUc9s5pnetI28Jnn8e74Smxo6bc5SsERoX7eu24a9ixLYxViRsTXSu7n03r6NRXL6ujVeE9eVaqp68fKXFvo9ZTWU4q8pjrHh/XhP33hEy4pxTtIACW5AAAGFezeFxao3J5elUVfVEnsMj5//AFKhpMzk7uSvy4XF2X1q9bhLlqNfxq9U58GNfovCornfNOURPXlU8qeLx2PRfJ04o3O9XPRvL3L93OX1cv5qpSartfgvOPBXfblMz038o7/jH7pmLScUcV5SOjlcZk2q/G5KrbanzWCZsiJ/+lVMoiFvD4+49JpK6MsN9WWIvwSsX7tenqhna/l7qWnYLMS+LYbH4ta1wjfMxovC8onoj28pzx6KioqfVE20favprxizRtM9JjpP8eXX377MZdLwV4qTukIALlEAAAAAAAwsxlIcNj5b8zHSKzhscTP2pZFXhrG/mqqiGmS9cVZvedojnLNazado6suSSOFjpZZGsY1OXOcvCIn5qaxm1avJL4EeyYt0vPHYlyNXc/w5I+mMlyb0u7G5tydV7mQL616/7rGL6Kqf015VfyT0TOfXrvi8B8Ebo+OOxWorf7Cgv2zktP8AxUiI8+s/Dp80+ujrEfmnmkyKjkRzVRUX1RUP0hTYLWvL53X2OWFnLpsc1f1crfr4aL6Mf9uOEX5Kn1SXUrlfIVIb1SRJIZ2JIx33RULLQ6+us3rMbWju+8T3/b4bxs2CcPPrD3AMLMZSHDY+W/Mx0is4bHEz9qWRV4axv5qqohNyXrirN7ztEc5ca1m07R1ZckkcLHSyyNYxqcuc5eERPzU1jNq1eSXwI9kxbpeeOxLkau5/hyR9MZLk3pd2Nzbk6r3MgX1r1/3WMX0VU/pryq/knomc+vXfF4D4I3R8cditRW/2FBftnJaf+KkRHn1n4dPmn10dYj8080mRUciOaqKi+qKh+kKbBa15fO6+xyws5dNjmr+rlb9fDRfRj/txwi/JU+qS6lcr5CpDeqSJJDOxJGO+6KhZaHX11m9Zja0d33ie/wC3w3jZsE4efWHuAazP5h2IqMWvAk9yy9Ia0Krwj3qnPKr9GtRFcq/ZPvwTMuWmCk5LztEOVKze0Vr1Z1izXqRLPasRwxt+b5Ho1qf1qYNfZ9atypBU2HGTSqvCMjtxudz/AARSPRYeOWVLuZk943fn4szUVsf5Rs+TE/h6/dV+ZmT1KlqLwLVWKaNU47JGI5v9ilDbtnNM70pER59flyj5p0aOsRznn/v93JQCFxT2dUclqq+WXEt4SxVcqu8u36yRKvqiJ81Z8uEVU4X0WZtc17UexyOa5OUVF5RULXRa6msrO0bWjrH+6wi5sM4Z8YfoAJriHlYs16kSz2rEcMbfm+R6Nan9amDn8w7EVGLXgSe5ZekNaFV4R71TnlV+jWoiuVfsn34I9Fh45ZUu5mT3jd+fizNRWx/lGz5MT+Hr91X5lXre0o0tvR444rfKPf5+Xx25JOHTTljitO0Iro2QoZTr51F2ea9XSJmOwWuY17pWo2wyBlm3K+Fefxt8TIdjnN5TuhVq+rFRLeIvPUqWovAtVYpo1TjskYjm/wBimHFPZ1RyWqr5ZcS3hLFVyq7y7frJEq+qInzVny4RVThfRYmHtm0W2z1jbxju98eHnv8As7X0cbfknmmgPxrmvaj2ORzXJyiovKKh+l+gAAAAAAAaXYszZo+DjsY1jr9zu7FenLYY0/alcn1ROURE+qqn05VOOfPTTY5y5OkN6UnJbhq2dy/Rx8Xj37kFaP8ApzSIxv8AapjUthwGRk8HH5zH2pP6ENlj1/sRSO1sLTik83ZRbtxU/Fas8PkX+C/Jqfk1ET8j3t4+jfj8K7Thnb9pGI7j+HPyKOe2c0zvWkbeEzz+Pd8JTY0dNucpWCI0L9vXbcNexYlsYqxI2JrpXdz6b19Gorl9XRqvCevKtVU9ePlLi30esprKcVeUx1jw/rwn77wiZcU4p2kABLcgH45zWNV73I1rU5VVXhEQhks9janLatSSxYl3KV6rVVvmG/SSVU9VRfmjPlwqKvK+iQtbrqaOsbxvaekf7pDthwzmnwhIbGz61UlWC3sOMhlReFZJbja7n+CqZ1ezXtxJPVsRzRu+T43o5q/1oRyCpUqxeBVqxQxonHZGxGt/sQw5cPHDKt3DSe7rvz8WFqI2T8pGfJ6fx9fsqL6lVXtnLE73pEx5dfnyn5JU6Osxyn/f73poDV4DMOy9R62IEguVnrDZhReUa9E55Rfq1yKjkX7L9+TaF9iy0z0jJSd4lBtWaTw26gAOjUAAAAADS7rrcm46ll9Vh2LL4GTK05ajcniLHgXaavaqJLDJwvY9vzRePRTdGl2LM2aPg47GNY6/c7uxXpy2GNP2pXJ9UTlERPqqp9OVTjnz002OcuTpDelJyW4av5uezX7PvXnpn/dDLGS9oPaL+wUMBg8nnMPs9p7m0b6zshpLKnK9kVl0b0SSP9tVjVyq9vD1/pbS2HAZGTwcfnMfak/oQ2WPX+xFI7WwtOKTzdlFu3FT8Vqzw+Rf4L8mp+TURPyPe3j6N+PwrtOGdv2kYjuP4c/Io57ZzTO9aRt4TPP493wlNjR025ylYIjQv29dtw17FiWxirEjYmuld3PpvX0aiuX1dGq8J68q1VT14+UuLfR6ymspxV5THWPD+vCfvvCJlxTinaQAEtyD5kkjhY6WWRrGNTlznLwiJ+amJmMpDhsfLfmY6RWcNjiZ+1LIq8NY381VUQi6YyXJvS7sbm3J1XuZAvrXr/usYvoqp/TXlV/JPRK3Xdo10kxSscVp7ukRHnP0SMOnnL+aZ2hIGbVq8kvgR7Ji3S88diXI1dz/AA5MvI5PH4jGWszk7cVajSgfZsTyO4ZHExquc9V+yNRV5/I0T69d8XgPgjdHxx2K1Fb/AGEK6k9PW7ZpWS1Cncs1sRlvChy2Ng7VZdpeKx1iuxHekazRNkhXj0VsjvTnhUgYu2b1n/mrG3jHWP27/jv5S720cTH5J5+bJ9njG37WoXupueqyQZjqRkZNmnimTiStUkYyPH1nc+qLFTjrNc30TxPFXhFcpaZj0LVW9SguUXNdXmja+NUThO1U9PT6fwMg9BW0WiLV6SgzExO0gAMsAAAAAAAAAAAEf6e/GXwBrP6RvKfFnuel7+8px4HvHwWeZ8Pj07PF7+OPpwSAh/Rulhsb0h0fHa5tEuy4mrreMgoZqZ3c/J121Y0jtOVfmsjUa9V+7gJgAAAAAAAAAAAAAAAAAAAAAAAAAAAAA5H6/ZzGP9obJa3tWY6vux0fT1l3GUNBsbGr25BbczfFdFh17UcqI1qOsJ4fKIir8yvtu3HfdYzeKn67YPrDsS670mpZjP0dE22fGSUraWZGy2rEVfI1PHf2NRHeH4qorXL2oicnbselazFuk3UKPG8bBYxrMRJc8aT8VRkiytj7O7sTh7nL3I3u9eOePQ85dC1GfbLe7z4ZkuZvYpMHZnkke5stFJHSJCsSu8Pjue5ee3leeFXj0A5ByWR3/IWOgWv7Fe6gb83L6nl8heq6Nur8XPf7VrOrTy2vPUWzrHHIjXOWVVc5yqiO5VTf9U72LwW/dINT2j9NWD1q7gc7Yt4TGZ/YMlmvMsdWWLzU2Gs2LE/Z3v8AxLNJG1HIiuT0QuNvsqdEq+J13C4vCbBiK2px24cK7EbdmMfNShsvR80LJq9pknhK5reI1crGo1EajUREJXhukmj4TKYLOV6uVuZPWqtuljb2Uzl7I2YobLmOma+WzNI+XuWNnCyK5Wo3hqonoBxzby/VXGJ0mwfU3FdYc/VXE7Zffhde2izis7YxsFmJcdNef56pJNYZVczvY6V0qvevLXO54kPSzbdt6k4rpDpFvfNnh0zf59hz8VmLPWW5lcZXVHUsTZyLHLYZOzxFWVWT+LzB2LI5Ed3ddX9J1jJ7fid8vYzxM7g6tmlQteNIngw2Ozxm9iORju7wmermqqceipyvMNd7NXRT3BNrVfTHVKMmbl2OBKeTuVpqGSlVVks0popWy0nOVz+fLujRe96ccOdyHPPVTO7dpuK6odJsNvm3SYXB5zT1xmQfn7bslRhyNuNlql7w8RLb04a5yOfK6RGzK3v4RrW27o9O7009o210twez7NlNYzGo/EC1M9nbeYkoXYrSQK6KzcklnayVjk5jdIrEdHyxrVV/dLHezl0efo2S6dv1ey7EZm9HlMlKuYvLkLt1j2PZZmyHjebkma6OPiR0quRGNRF4RENzoXSLRem1zI5TWaWTlyWWbFHdyWYzd7MX5ooufDhW1emlmSJiuerYkejGue9yNRXOVQmQAAERVVsbLmbD/V1d8NNn5MSJsn/3mX+wlxE8kz3Zs0j5Pww5djHRuX5eYjbw5v8AFWI1U/wHfYp+2omcFbR0i0b/AAmPrMJejmOOY8v4ZIAPPrBj5CpHfo2KUv7M8To1/LlOOTV6p1e17O6Va2pcZt6R4eCLzzJdPy8ViV6tRVWtA+sktxvPydXbI1foqmbmbMsVNatRUW5dXy1Vv3kci8L/AAanLl/JqkroU4sfRr0IP5OtEyFn+C1ERP8A7Ft2NEzmvaOm0RPv7vhz+KJrJjhiEWu9VNYoYbCZ6fF7g6tn5EiqMg03LzWI1X62a7Kyy1E/enZGifc2HxxhfjL4E8lsHvLy/mfH+Hsh7u7OOePeHg+U7/3PF7/pxySAHoleh9LqprF/DZvPQYvcG1sBIsVtk+m5eGxIqfWtXfWSW2n70DJEX7i71U1ihhsJnp8XuDq2fkSKoyDTcvNYjVfrZrsrLLUT96dkaJ9yYACE60qy4Opcf6yXWeckX6q+Ve9f87v8xszW4hnu90+vy/hlxz1axv8ASruVVicn5dv4f4tcbI8Jjia1ituscp98cp+a8mYmd46BpdqylfXqEOz2Y7b48TZjnkbUqS2p3RuXw3tjhha6WVytevEbGuc5eEairwhujCez3nnKOKi/ElaRt61x/MYxV8NF/N0iIqfkxxvETa1a16zMbe/f7dWszERMz0LvVTWKGGwmenxe4OrZ+RIqjINNy81iNV+tmuysstRP3p2Ron3Nh8cYX4y+BPJbB7y8v5nx/h7Ie7uzjnj3h4PlO/8Ac8Xv+nHJIAe4UqH0uqmsX8Nm89Bi9wbWwEixW2T6bl4bEip9a1d9ZJbafvQMkRfuLvVTWKGGwmenxe4OrZ+RIqjINNy81iNV+tmuysstRP3p2Ron3JgAI/8AHGF+MvgTyWwe8vL+Z8f4eyHu7s45494eD5Tv/c8Xv+nHJr6XVTWL+Gzeegxe4NrYCRYrbJ9Ny8NiRU+tau+skttP3oGSIv3JgAIfd6qaxQw2Ez0+L3B1bPyJFUZBpuXmsRqv1s12VllqJ+9OyNE+54ZnYaOV3aHVIoMk2bDwuv2Hz42zDWkc5rWx+DYexIbCokj+5InvWNe3v7VVvM3I5uEa1kpZ/j9Xj3ubZX+jBIiI538Guaxy/kild2tWbaO/D3bT+0TEz8t0jSzEZY3/ANyAfiKjkRzVRUX1RUP08wsw0en7vh4dryPTfyee89WnksRTJr99cckT42TK3z/g+UR/Mjv1fi9/y/D8jcWbEFSvJasytihiar3vcvCNanzVTM1KpPXxbrdqJ0c+Qmfbex3zYjuEY1fzRjWIv5opP7LibauOHuid/d/c/RH1UxGLm1VLqprF/DZvPQYvcG1sBIsVtk+m5eGxIqfWtXfWSW2n70DJEX7nlPnqe1v1vI0IchFStwWcjHFkMdYo2EVnZG3xK9hjJY3frnL2vY1fkvBNSObhGtZKWf4/V497m2V/owSIiOd/Brmscv5IpcdrVm2jvw920/tExM/LdE0sxGWN/wDcgH4io5Ec1UVF9UVD9PMLMNPqm4YqptFzp26pm1uslkuQTMwd1+PbC9rZFa682JarJO5z+InSpJx2r28Oaq7SzYgqV5LVmVsUMTVe97l4RrU+aqZmpVJ6+LdbtROjnyEz7b2O+bEdwjGr+aMaxF/NFJ3ZcTbVxNe6J393/wB2+CPqpiMXNqqXVTWL+Gzeegxe4NrYCRYrbJ9Ny8NiRU+tau+skttP3oGSIv3Mapnqe25SpmqMOQiqe6o568eQx1ijYb40siO769hjJYnfqE9HsavC/L1JyRfZGe781TzL/SvZj8jO9fkx/d3Qqv5Kqvb/ABc0te2ImdNvHSJiZ939TtP7IukmPSbPUAHnFk/HNa5qtc1FRU4VFT0VDSaD1Cwl6tkdaZS2XzOrNnisyza1ko68scMj2NStYfAkNt3axPwwPkdz6ccmzyN6LHVJLcqK7t4RjE/akeq8NY37qqqiJ+am613HS4rC1aNhUWdrFfMqfJZXqrn8fl3OUsuyImdVMx0is7/vMbfSUbVzHo4jzRz9L2qfBvx37p3X3b5jy3gfBGa949/PHPkPK+b7P3/C7PryZ93qFgaGZwmBnobK6zn40lqPg1jJTV40X6WbDIFiqL+7O+NU+qEmB6ZWoJHsNHZdwyMFSDJRprzPJP8AO42zUR0z3qr3wrOxiTx8RsRJou6Ny9yI5Va5E3B5bIz3fmqeZf6V7MfkZ3r8mP7u6FV/JVV7f4uaep47VxNdTki3Xff9p6fLl+y3wzE46zAfjmtc1WuaioqcKip6Kh+mNkb0WOqSW5UV3bwjGJ+1I9V4axv3VVVET81I9pisbz0dIjfo1mg9QsJerZHWmUtl8zqzZ4rMs2tZKOvLHDI9jUrWHwJDbd2sT8MD5Hc+nHJlfpe1T4N+O/dO6+7fMeW8D4IzXvHv5458h5XzfZ+/4XZ9eSR67jpcVhatGwqLO1ivmVPksr1Vz+Py7nKbI9ho6Wx6bHW/WKxv79lRlmLZLTHTeUZu9QsDQzOEwM9DZXWc/GktR8GsZKavGi/SzYZAsVRf3Z3xqn1QUuoWBv5nN4GChsrbOAjWW2+fWMlDXkRPpWsPgSK2v7sD5FX6ISYElzQr9L2qfBvx37p3X3b5jy3gfBGa949/PHPkPK+b7P3/AAuz68mfd6hYGhmcJgZ6Gyus5+NJaj4NYyU1eNF+lmwyBYqi/uzvjVPqhJgBGaXULA38zm8DBQ2VtnARrLbfPrGShryIn0rWHwJFbX92B8ir9ENFq+z4/eJ7+1YytlYK0j2U4I8ribWMtMZG1HL31rccc0fL5HKnexO5O1yctVqrYZE8kz3Zs0j5Pww5djHRuX5eYjbw5v8AFWI1U/wHfYp+2omcFbR0i0b/AAmPrMJejmOOY8v4ZIAPPrBj5CpHfo2KUv7M8To1/LlOOTX651YwOU1G9sUuO2vjBRsZkGrqeVSWaTtTuWpEtfvvM554fWbKxyeqKqLyZOZsyxU1q1FRbl1fLVW/eRyLwv8ABqcuX8mqSuhTix9GvQg/k60TIWf4LURE/wDsWvY0TOa9o6bRE+/u+HP4omsmOCIRa71U1ihhsJnp8XuDq2fkSKoyDTcvNYjVfrZrsrLLUT96dkaJ9zYfHGF+MvgTyWwe8vL+Z8f4eyHu7s45494eD5Tv/c8Xv+nHJIAejV6CT73h9z1zMQ4SnsNXy1uHF2Fy2vZDFdyyzNjcsXm4YvGZw5f1kfcz8zbta1rUa1qIiJwiInoiGy2LHS5XC26NdUSdzEfCq/JJWKjmc/l3NQ0uOvRZGnHbiRW93KPYv7Ub0XhzHfZUVFRfzQ8z2vExqomek1jb9pnf6wstJMTjmPNkgArUlHstuGK0bY6dnKVM3PFm4vJo3E4O7k3pMx6djpGVIpHRR8SPRZXo2Nv4Uc5OWosk+OML8ZfAnktg95eX8z4/w9kPd3Zxzx7w8Hynf+54vf8ATjkx9bZ7wzVzMs9a9aPyMD0+T393dMqfkitY3+LXEoPR9jxMabeekzMx7v7nef3VurmPSIfS6qaxfw2bz0GL3BtbASLFbZPpuXhsSKn1rV31kltp+9AyRF+4u9VNYoYbCZ6fF7g6tn5EiqMg03LzWI1X62a7Kyy1E/enZGifcmALVGR/44wvxl8CeS2D3l5fzPj/AA9kPd3Zxzx7w8Hynf8AueL3/Tjk19LqprF/DZvPQYvcG1sBIsVtk+m5eGxIqfWtXfWSW2n70DJEX7kwAEPu9VNYoYbCZ6fF7g6tn5EiqMg03LzWI1X62a7Kyy1E/enZGifc2HxxhfjL4E8lsHvLy/mfH+Hsh7u7OOePeHg+U7/3PF7/AKcckgAEPpdVNYv4bN56DF7g2tgJFitsn03Lw2JFT61q76yS20/egZIi/cwcBnqe23L2y0YchFXlSCCBmQx1ijZZGkTZOH17DGSxL3Su/C9jV9E9PkT4ieSZ7s2aR8n4Ycuxjo3L8vMRt4c3+KsRqp/gO+xT9tRM4K2jpFo3+Ex9ZhL0cxxzHl/DJAB59YMfIVI79GxSl/ZnidGv5cpxya/XOrGBymo3tilx218YKNjMg1dTyqSzSdqdy1Ilr995nPPD6zZWOT1RVReTJzNmWKmtWoqLcur5aq37yOReF/g1OXL+TVJXQpxY+jXoQfydaJkLP8FqIif/AGLXsaJnNe0dNoiff3fDn8UTWTHBEItd6qaxQw2Ez0+L3B1bPyJFUZBpuXmsRqv1s12VllqJ+9OyNE+5sPjjC/GXwJ5LYPeXl/M+P8PZD3d2cc8e8PB8p3/ueL3/AE45JAD0avV1BvWG3rOVqeJpbBXjxUtp8yZfXshikfNGjGIsXnIYvHZxK7h8fcz5evyJENwjWslLP8fq8e9zbK/0YJERHO/g1zWOX8kU/EVHIjmqiovqioeS7Qia6zJxd+0x7toj6xK108xOKu3n9X6AedmxBUryWrMrYoYmq973LwjWp81UhzMRG8uzSxb1htHhko5elsFiOfMPp1UxGvZDK+G6Rkc363ycMvgM5mX8cnaxPv6Eh+OML8ZfAnktg95eX8z4/wAPZD3d2cc8e8PB8p3/ALni9/045PXUqk9fFut2onRz5CZ9t7HfNiO4RjV/NGNYi/mim7PWdnVtTS0i3h8u6P2hVaiYnLaYQ+l1U1i/hs3noMXuDa2AkWK2yfTcvDYkVPrWrvrJLbT96BkiL9xd6qaxQw2Ez0+L3B1bPyJFUZBpuXmsRqv1s12VllqJ+9OyNE+5MATXFH/jjC/GXwJ5LYPeXl/M+P8AD2Q93dnHPHvDwfKd/wC54vf9OOTX0uqmsX8Nm89Bi9wbWwEixW2T6bl4bEip9a1d9ZJbafvQMkRfuTAAQ+71U1ihhsJnp8XuDq2fkSKoyDTcvNYjVfrZrsrLLUT96dkaJ9zYfHGF+MvgTyWwe8vL+Z8f4eyHu7s45494eD5Tv/c8Xv8ApxySAAQ+l1U1i/hs3noMXuDa2AkWK2yfTcvDYkVPrWrvrJLbT96BkiL9xd6qaxQw2Ez0+L3B1bPyJFUZBpuXmsRqv1s12VllqJ+9OyNE+5MABH/jjC/GXwJ5LYPeXl/M+P8AD2Q93dnHPHvDwfKd/wC54vf9OOTX0uqmsX8Nm89Bi9wbWwEixW2T6bl4bEip9a1d9ZJbafvQMkRfuTAAQ+71U1ihhsJnp8XuDq2fkSKoyDTcvNYjVfrZrsrLLUT96dkaJ9x0bu4bJdIdHyOuavLrWJta3jJ6GFmb2vxld1WNY6rkX5LG1WsVPu0mBH+nvxl8Aaz+kbynxZ7npe/vKceB7x8FnmfD49Ozxe/jj6cASAAAAAAAAAAAAAAAAAAAAAAAAAAAAAAAAAAAAAAAAAAADEyeMp5em+jej7438KiovDmOT1RzVT1RyL6oqGWDW9K5KzW0bxLMTNZ3hE343ZsZ+rZDHl4G+jZGyNhscfvNXhjl/NFb/A+U+JbC9lfWpK7l/n3LUTWJ+f6tz1X+wlwKmexcEzvW1ojw3j7xM/NKjWX25xClOqeP2Hprcw3XWLLXMjX1l0sGz4+NHLAuDn7PMTwQ8qjZazmRWFk9XuijnZ/PaiXPXsQW4I7VWaOaGZiSRyRuRzXtVOUcip6Kip6oqH7PBDZhkrWYWSxStVkkb2o5r2qnCoqL6Kip9Co+i81jp7n8t7PeXne+HAQplNQmldy6xr739rYOf6VOVfLKnz8Lyrl9ZFLPDgx6ekY8cbQjXvbJPFZb4AOrUAAGqzeAhy/hWIrD6l2vz4NmNEVURfm1yL6OYvHqi/xRUX1NO6LZ6i9ljBJd4+UlKwxEd+atlczt/hyv8SWgrtT2Zh1NvSc62nrMd/v3iY/fbdIx6m+OOHrHmrvXtht7pczeNwUDKUmvZJcTk33PWSvZ8CGftbG30f8AqrETkXv7eHJ8yaYbC1cLWdDA6SWWV3fPPKqLJM/+k5U/sRE4RE9EQh2m6rnte6udRctJQ7MDszMPla1pJWKkt9ld9SzH2IveithqUV7lajVSREaqq1yNsE20vZ2HS2443m3jP9bR8mMuovljaeUAAJ7gAAAAAB8vY2Rqse1HNcnCoqcoqfY+gBFpdcymIVfcD4rNPnltOw9WLCn2jk4X8P2a5PT6ORPRIfp/VjXuoGe2XV9KamXyen24qGbbXswuhp2JGd7Y1lR6tc5ERUcjO5WuRWu4cioar2yMNtmZ6BbGmr9XrnTqOnXktZPJUMT567aqNjei06yJLG6OWV6xta5qq5V/Cifi5KH/ALmX7NHVj2YLnVTTupmK7Ib78Fdx2Qhf31rbnQTrOyN3zV0TnNY/lPn8uUVFWoydi4LW3pM1jwjbb5xO3u6JddZkiNpiJdg1NauXbEdvYpYVZC5Hx0YFV0SOT1R0jlRFkVPonCNRfXhfRUkoBO02lxaSvDjjr1nvn/fBwyZbZZ3sHy9jZGqx7Uc1ycKipyip9j6Pl72RMdJI9rGMRXOc5eERE+aqpJc0Yl1zKYhV9wPis0+eW07D1YsKfaOThfw/Zrk9Po5E9E0Mu5th2+toEuFtxZ+5jpsrWrSyRNZNVikZHLIyTuVHdj5Ykc1OXN8RiqiI5FXb6Z1i6RdRsjaxHT3qnqG0XqLPEtVcNnKt2aBnd29z2RPcrU59OVRPX0MLqroWY2t2tbLqFqnU2jUczDksfLbe9kM1d/6m7VlcxHO7Ja0kqJ+FyNlbC/hVjQqMnYuC1t6TNY8I22+cTt7uiXXWZIjaYiW4qa1cu2I7exSwqyFyPjowKrokcnqjpHKiLIqfROEai+vC+ipJQYlrLYqlcp467k6le3kHPZTglmaySw5jVc5I2qvL1RqK5UTnhE5J2m0uLSV4ccdes98/74OGTLbLO9mWeNupWvVpadyFk0EzVZIx6co5F+h7AkTEWjaejnE7c4RObD5zCMd5OWPJUo0VUSxN4c8Tft3qna9ET6u7V+6r8yKdO+qeC6u4m7nOmbG5vH0MlYxM11lmJK3moFRJGska53iNRVTh7EcxyLy1VQrH+6FdOuofUvo3HrWmdXbOpVsnbixM2Hp4vx59juW5ooatR1hJWOggRznul4a9Fj7nOTtjVFxv7m/0U6hez70V2bpd1Hxbqt7F7tkfJzovMN+msFbw7UK/NY3qj+OURfRUVEVFQqLdi4JnetrVjwjbb5xM/NLjWXiOcRLo/F63MlyPK5yyyxZi9YIIkVIK6/LuTn1c7j07l/qRPXnfgFjp9Nj0tODFG0fX3o+TJbLO9gAHdo8bdSterS07kLJoJmqyRj05RyL9CNPwmfxH6vHuZlKifsMml8OxGn9HuVO2RE+69q/dV+ZKwQ9VocWr2m/KY746/wC97rizWxfp6Iij9ikXsi1WzG7+lYtQNZ/ax73f/SZ+L1uZLkeVzlllizF6wQRIqQV1+XcnPq53Hp3L/UievO/BHwdk4MN4vaZtMdN9vtEfPd0vqr3jaOXuAAWiMAAAAABiZPGU8vTfRvR98b+FRUXhzHJ6o5qp6o5F9UVDLBrelclZraN4lmJms7wib8bs2M/Vshjy8DfRsjZGw2OP3mrwxy/mit/gfKfEtheyvrUldy/z7lqJrE/P9W56r/YS4FTPYuCZ3ra0R4bx94mfmlRrL7c4hpcNrvkbLsnkrXnL7m9iP7e2OFq/NkbfXhF+qqqqv344RN0AWWDBj01PR4o2hHve2SeKwADs0DQZTW5luSZXB2WV7MvrPDKirBYX5dy8erX8encn9aL6cb8hXWiCGfpXs3m+pGQ0CpDQfZubJQWNLGNrRKkk0jHSNc1qrG17e7tVze5Vbw5EVOGo02PVU4Msbx9Pc3x5LYp4qotL1h1et1Nr9GJZY7G7WKUuRTE0bUU7468fb3SSr3N8FF729qSdqu5/Ci8KTNmEz+X/AFeQczF1F/bZDL4liRP6PcidsaL907l+yp8zg/2EfY+6mdE/aiudU9nrZe5ru2aPcyNa9lHI+5Ut2MhCsdS4/wCtpa7XSv7U4RznN5Xt5X+jZXV7FwRO9rWtHhO23yiJ+aROsvMcoiHjUqVqNaKnThZDBC1GRsYnCNRPoewBbxEVjaOiJM785AAZAAAAAAMTJ4ynl6b6N6PvjfwqKi8OY5PVHNVPVHIvqioZYNb0rkrNbRvEsxM1neETfjdmxn6tkMeXgb6NkbI2Gxx+81eGOX80Vv8AA+U+JbC9lfWpK7l/n3LUTWJ+f6tz1X+wlwKmexcEzvW1ojw3j7xM/NKjWX25xDS4bXfI2XZPJWvOX3N7Ef29scLV+bI2+vCL9VVVVfvxwiboAssGDHpqejxRtCPe9sk8VgAHZo+XsbI1WPajmuThUVOUVPsRiXXMpiFX3A+KzT55bTsPViwp9o5OF/D9muT0+jkT0SUgi6rR4tXERkjnHSY6x/vCeTrizWxT+VEfE2F34G6ncR39J9mujP7UkV3/ANJH+ofTXb941C7Vo7O3CZ2usd7CrXe91aK/BI2WBbXHC2IVexrZIuEa5iuThV4VLOBEw9j4MVotaZtt47bfKI3/AHdb6u9o2iIhE+l2/wBbqXpNDao6EuOuP8Srk8bM5FmxuQhesVmrJx/OjlY9vPyVERyeiopLCncojukHWivsMa+HqPVGzDjsm35R0NjaxGVbHCfJLcTErvVfTxYKqJ6yOUuItUUAAAAAAAAAAAAACH9G6WGxvSHR8drm0S7Liaut4yChmpndz8nXbVjSO05V+ayNRr1X7uJgQ/o3dw2S6Q6Pkdc1eXWsTa1vGT0MLM3tfjK7qsax1XIvyWNqtYqfdoEwAAAAAAAAAAAAAAAAAAAAAAAAAAAAAAAAAAAAAAAAAAAAAAAAK164ajncnh8bv2jVfG3HRLLsviIUXj3hF29tvHu+6WIO5jefRsqQSL/JoWUANPp+2YPe9VxW5a1b8zi8zUjuVZFTh3Y9qKiOb82uT5Oavq1yKi+qKbgp3VUTpB1fudPZF8LVeoU1rOa2i8JHTy6IsuRoNRPkkqd11ifVy3Po1qFxAAAByR7YVLQr/V3p7D1D2XpFhMcmCzbo7HU3CQ5TFul8Wnw2OKW3Wak/HcrXJIqo1Hp2rzymTpHUHZ8Lr+PazYNjxmtar0yjz/u+jVp2rVtWSWYWyNfZhaqtWNkcsbeY0/DF3L297X9XADjbp91d6tbdUpaunWGSwzKb3Dh6ux42fFZSw/FT4aW01zJ2Y6Cm96Ss9HMrvY1zXM75kRVXd631k263mtUrb31ufq7vJ12Y+t7mqS/GV33jYrWI3ReEssj2xQQqrKToljWdZHosfDUvjqzu2V6f4PD5/H16ktafZcNicj5hjneHVvXoqayM7XJw5r7EbuV5RGo7lPqk2A5g9mnJbfhsvrWFsbfZv4LY6u0W0xMtOuyGhLVyyNY+GRjEmVXtsP7/ABJHtVUarUZ6ovT4AAAAAAAKMy/X7fcZn9tss6Z6/NpumZ+vgshknbVKzKSLLHWcskNHyKxP4W0xEYtpqu7V49VRq3mVHjfZ+6Qaru22daNw1nT8hm72WXYI9gyWEqttYeGKpDF2pck7ntaxIHP7+5iNR6+icKqhDtp6pbDtrpbG19INcuaBgt8qYdbXxlZbkXXK+Qijr2fIJRbDK1lnwpEidaX9hHcK5qNOjSg4PZQ6eyZGbqVr8Wss32bZZ9rxO4Jr8E1iNs7lVK8rkej7MKwvfH/KN9HI5nY5rVS+293ancqKvHqqJwnIH6AABh5hj5cTdjjY5731pGta1OVVVavCIhmADhzpbjuoEGj4mlh7HVfKZvA9P8rSmr7BqE+Gbrtl1ViRw4ydtGo61I+aNjERX2ndsaOa9i8q+S9R6HVHHZjRcbqkHUaK7i4MNlZ7/m9iyMeR8a61cjXlZDPHThdGxXPVLnj/AIH+HDA1Gcp18AOUJsD1xqrk9l1q5vrtiyV/c6EcFu/bfTZWY6d2McytO5a0K9yR+FMjWq5HNb3OZwiecGjw7vkNGxevxdbYtdo5bJrZvbBby9S/C52Kc13hW7Dm5GKJZuER73tRXqqROWNUQvvrNkd4wWiWdp0BZZ8jr80OWnxscMcjstShcjrVJvei9skkPiJG5qoqSJHyvb3IspwOdxG0YPHbLgL8V7F5apDepWol5ZPBKxHxyN/JzXIqfxAjvRyXZZulOoybl5/34uHq+8PPxqyz46Roj/Fa5EVH8/PlOeeeSYgjvUPdsX030fN71mY5JauFpSW3QxJzLYeifghjT6ySPVrGp9XORPqBA3ub1M9oJIEckuC6SQJI9OeWSbFegXtRf3q1CRV+n+2TV/mlvEE6KaTlNF0CpT2WSOXZstNNm9injXlsmUtvWawjV+sbHO8KP7RxRonoiE7AAAAAAAAAAAAAAAAAAAAAAAAAAAAAABTm7K/q/wBU6nSiu1smq6bJVzu4P5/DaucpLjsWqccOaqolqZPo1lZqorZlJj1a6hJ020yfN1MeuTzNyeLF4LGN57shk7DuyvB6erWq9e57/kyNkj19GKOkvT1OmumQYS1kFyeZuTy5TO5N3PdkMnYd32Z/X1a1Xr2sZ8mRtjYnoxAJkAAAAAAAAAAAAAAAAAAAAAAAAAAAAA0G+6ThOo2m5fR9iZKtDMVnV5HwyLHLC75slienqyRj0a9jk9Wua1U9UI30U3TObLrlvXN3ki+NNOtrhNh8NnhssTsa10V2NnzSKzC6Odn273M+bHFhlO9XG/ou3HF+0DSXwsXDFHgt3Y3hGuxDpFWC+/6qtKaRzlX6QWLKrz2tAuIH4ioqIqLyi/JT9AAAAAAAAAAAAR/p78ZfAGs/pG8p8We56Xv7ynHge8fBZ5nw+PTs8Xv44+nBICH9G6WGxvSHR8drm0S7Liaut4yChmpndz8nXbVjSO05V+ayNRr1X7uAmAAAAAAAAAAAAAAAAAAAAAAAAAAAAAACu+pXWSLp5sut6bR6fbRt+b2llyWlTwbsexWx1msdK6R921XjROJG8IjlVfX0NpY6rabgaWAf1EzGP0PJ7LIlehh9jy1GC5LYVyNSBiRzvjmk5c1O2J7/ANpPX1AmAI3a6l9OKO4w9O7vUDW6+12YfMQ4KXKwMyEkXCr4jayu8RW8NcvKN44av2I7oHtEdF+pyzt07qLgrj4s3Pr0UfvCFslm9Exz3RxM7+56qyOR7fTlzI3PRFancBYwIld6vdJ8bXr28j1Q1KrBbfNHXlnzdZjJnxSpFK1iq/hyslc2NyJ+y5UavCrwZuK6h6BntmyWlYPedfyOw4ZqPyWIqZOCa7SavHCzQNcr40XlOO5E+afcCQArLq17RfS3ovn9S1Lccy9c/u2ThxmGxVNjZbMzpJEYszmq5EZCxXfie5U+zUc78JZoAAAAAAAAAqXW/aIx2x7JXxC9NdxxuJu5q5r9PYbi41aFm9WdM18bWRXH2moq15e1z4Gt/D6qnKc20cv6H7Ne36x1ATPLoHTTDSptGRzdndMTfmdsGSpTzzStoTx+Ri/VuSSNj0dakaiRoqNVUarQsPqhu3s87frFSrtnWzVMNBHmqkuMysOy0q81bKQOjsRJBJI5W+L2q3mNUd3Ryqjmqx6os5k6k9Ootpg0aXftcZslpXJBh3ZWBL0qtY2R3bB3eI7hj2uXhvo1yL8lQoXa/Zz6t5Lo9rfSfC7BiYqkODyOLzLIM5dxbfMzL3V7LJqsHmLDGOV6PrLJDHJ38vV6NRqyWHoHtLr2TuWb2GY6/tWCzjHRyyOfHBSoQV5W8rGn6zujkVifJWuTlWqqogTXNe0B0kxOPnytXeMLmK1DOQa/k5MXk61huKtyvVnbbVJESBGKiq9HKjmoi+i8E0wGw4Da8NU2PVs5j8zib8aTVL+PsssV7Ea/zo5GKrXp6L6oqoUJiug/UaXX9Y1LP4np7DR02/gWVL1R08tzJ08fYWRZJ1fA1IHKnDm108VqPc93jevBbXS3Tb+ja/fxGRkqPfazuWycfllcrGxWrks8aLy1vDkbIiOTjjnnhVT1AmIAA5R/uivXLJdFujE7Z+nGSzWE2KvYpuzlGw3/AGEysfZLj3TQq38UT5WcrIj07ViROFV7UJZ7G3tE7d7S/TbN9Y9o1vH6zr1vOT1daqNc50yY+FkbXTWJnO7XudN4qfhYxG9ip+L5lp9W8Np+y9OM/rO+4ZmXweYpvoWaCondZ8T8LWMX+a/uVqtcnCtciORU7eUpvpJ0ewHSvpxr3TenJYu4vXa6w0oLb2yMi7nue9yo1rWPkc973Ok7UVXOXhGpw1I+XP6OeGsby45c0Y+Uc5XvHvOkyz+Vi3DCPmVePDbkIVdz9uO7k3bXNciOaqKipyip9UKpfWrSReXkrxui447FYit4/geNCxkdQkS9rjXvqM5dYxSL+qlb9ViRfSOT7ccNX5KnyVOUam9f1xvHl/ubjXVTE/mjkt0GNjchUy1Cvk6EyS17UbZYnp9WqnKfwX8jJJkTExvCZE784AfL3sjY6SR6NY1Fc5zl4RET5qqlU5XNXd3lfNLNNXwSqra1RjlYttn0lmVPVWu+bWfLhUVyKq8JyzZoxbRtvMuWXLGKPNP7e6adj51q39sw1aZF4WOa/ExyL/BXcla9a7dXqPc1Xohh7cVuruNl2Q2B8D0exuv0nMfZY5U5TixK6tUVPTlliZUXlhlV6dOpF4FSrDDEicdkcaNbx/BDDTCw0b/vvX1Zi8qjezzMEaIkjeeeyVvykYqonKL6/VFReFI8anJHOYif98/kjxqrb84XKDR6hsqbLjHTT10rXqsi17ldHcpHIiIvLV+rHIqOav2X19UVDeEyl4vWLV6JlbRaN4AAbMgAAAAAVD0i/wDVzu+ydCrH4MfAsmz6lz8lxVmZfM1W/wCK23uTj5NhtVWonoW8Vd17wuVr4TGdVdVoy29h6d2nZmCtCnMl+grFZkKSJ9Vlrq9WIvp40UDv5oFolQ9Qmt6kdX9V6VsakuJ1dYd32ROOWufHI5uJrO+n4rMctpPqi49v9IsaLb9Zn1Fm+xZqs7XpMamXbke79StJYvFSbn+j4f4ufsQT2fMTkLGs5HqjsVSWtnOpF9dingm/lKdJzGx4+oqfzViqRwI9qcJ4rpncIrlAtMAAAAAAAAAAAAAAAAAAAAAAAAAAAAABRmX6/b7jM/ttlnTPX5tN0zP18FkMk7apWZSRZY6zlkho+RWJ/C2mIjFtNV3avHqqNXEynXDeci3My5Lphgk0OLZ36ZbyEG52Ycw7vstprNFVbRa1F75UVEbbR6N5Vq9yIgG70hH9X+qVvqxYckmq6dJawWns4/DaucrFkcoi88OaqotWFfo1llyKrZkLjNbrmu4PUNfxuq6zjIMdiMPUio0acDe2OvBG1GMY1PsjURP6jZAAAAAAAAAAAAAAAAAAAAAAAAAAAAAAFV7919q6LtOT1iHpluOxJgsRDnMxfxLsY2tj6cjpUR70tXIZXqiQSuVsUb14b6IqqiEhz/UrpC3HZHG7ZveqVqqY19nJ1cnk68Xh0XMZ3vnjkcisj7Z4+5XoicSt5/aTmoetHs+bLvPVTJbxj+mHS/a47+AqYrH5HZ780F/X7UMthy26iMoTr3J40bkVk0Lu6JPxJ6OTe3ej3VLF47eLOqbRjpc5n5sG+pcs2n15bMdOvDFZbNP4Ey1nyoyXtljZI5iydzeHJ6BItN33od0z6X61Wj6367Z1eGolXD5rLbLTkbbrxvSJjW2e5rJuxXRxd3KuVe1HK56qqyjMdU+nmFy1jWrW54R+wQYuTMpg48jAuRlpsa5yzMrq9HuZw13DuO3lPmUtpvs07lgWUI8lfxM0dSlt9dWzZa9kZUdlpopIEdYtNdNN2I17HySO7l9FRF7la3OwnQ/qVr0VvW69LRMhicvXr2bWUvyWH3qVyLER0PCrQpD2qirF3NsrK1zGSPb4LvmBbXTrqlovVXCtzWk7Jj8j2RQPuVYLkM1jHySxpI2GyyN7vCl7XJyxV5/j8yVlU9IukeV6d5SpbtvxSQV9Lwetqykrv/aKS2FkciKxqeGvjN7V+fovLU+trAAAAAAAAACH9G7uGyXSHR8jrmry61ibWt4yehhZm9r8ZXdVjWOq5F+SxtVrFT7tJgR/p78ZfAGs/pG8p8We56Xv7ynHge8fBZ5nw+PTs8Xv44+nAEgAAAAAAAAAAAAAAAAAAAAAAAAAAAAAUl1l6N5Dqf1k6a5izBm2a5gamaTJXcPsVnD2IJJooUgaktSeGwqOVjkVGKrfT8X0Kv8AaD9nXqPn98s2dRk3nM6xsOm19OlqYvNYhslfssOc9921mYbFjwXskRzpaySWO6HlWOXtU69AHGe0dGOtuS6yYW5a0fNZbGYPf8ZmqWXr53H08XDh46kcUj5KkckUty6j28OksQucjE/Uvan6pcir0j6v4G3ruUb0xymRfo/V3M7Z4FXIY1HZbGZCG7GyWqstpiNWPzTFeyfwnejkajvQ7EAHJ3RDoh1P1zdem+wbdpzKEWCTdJb6rerT+TkyF9stXt7HqrlfH3erUXhOUd2qvBreh3s9dX9N3yqzYJNij+Fbmy3MXmbtrCS4KWTIzveySKtWgZk7DnpIj5mWZ4Ua9i9j5E7VOwwBQ3Wzpd1I3PTdLikgwmxbTjNyweRyt/F0ExUS0K1tZXq2OxZmejWNcq9njPVVVytT14L5AAAAAAAAAAAAAaXdNQwe/anltL2Ss6fGZmpJTsta7tejXpx3sd82PavDmuT1a5rVT1RDdACt+iG4ZvM4TIaTu9jxdy0a0mGzcnZ2JdRGI+tfYn1ZYgVki8ejZPGj+calkFP9ZWSdN9kxXtC42F61cNAmI3KONPWbAPkV3ml/OlK5bHPz8F9tE5VyFuxSxTxMmhkbJHI1HMe1eWuavqioqfNAPsAAQLqPK6bN69jXfySNt31T6K+NI42/5rDlNSb3qdTdFWx+zNbyzEyvbaX+jWlREe/+DXNjcv7rXKaFFRyI5qoqL6oqFdk5Zbb+X0j+JV2aJjJO79APKzZr068tu1M2KGFivke5eEa1E5VVNZnbnLkxNZ6s61ply1pOXxe4WJ25FfKvxWm5fKVGMnRkiI+zUrSQRKj5H8te9qtb2uVEaqKug65+0jPgulO9ZnpbR2entOp4ufMQS7B052CPGSspuSSeJ00lWKJySRMkYjmyoid/ei9rVVLa6d4uzj9e81dhdDZyk8l+WNycOYj+Ejav5pG2NF/NFPzqf011Xq/ouT6cbvBbnwWZSJl+CrclqvniZKyRYlkiVr0Y/sRrkaqKrXOTn1JuniYxV3/3gscMTGOIlyD7PX90b1j2qtavaNY6f7Brm3SRQ17TqtWW7ilillbE9/mmN/vbuar+EmRreVaxsj3qiL0m1rWNRjGo1rU4REThEQ3dXpJpmodN7HT7pnqmJ1zHxR+JTqUKzIIvMMVHse/tT8Tlexque7ly/NVVSOY69FkajLUbVYq8tkjd+1HI1eHMcn0c1yKip90I2fll5+H3nf6wjamJ49/JkgA5uDL0uV1ben14/RmQxUkkifd0EsaNX+yw7+wsgr7p3UXI5vIbI1Oa1eL3bWenye/v7p1T8kc2Nv8AFjvsWCStL+jfumeSdpongAASXcAAAAAAAByfk8RkoNsf7FcNWb4ezWTTZ4J2t/Vx6asqzXaCr6/K6jaXavyrXY+OFYdYHKdrHZvakzftj6/DPdyWFyyP1qpDyrr2o0UlgswMbzw5bfiXbca8J3O8lynLDqDD5fGbBiKOfwt2K5jslWiuVLMS8smhkaj2Pav1RWqip/EDMAAAAAAAAAAAAAAAAAAAAAAAAAAAAAU9W6EdF9J27b+uW+YHSrOUs5VdiTZMvh6kVjCwRVYYuPOy8uYxiQOf39zEb3r6Jxyunb7JehR5az1Dw1XXIOoK7PY2jGbauvQy2YfGev8Ae0y9yPsQ+E98f8o30cjmdjmtVNtu6v6v9U6nSiu1smq6dJVzu4P5/DaucpLjsWqccOaqolqZPo1lZqorZlLjA/G93ancqKvHqqJwnJ+gAAAAAAAAAAAAAAAAAAAAAAAAAAAAAAAAACndAcnSbqhkujtjmPXtnW1sunO4Xw4Hq9HZLGovyb2SSJYiYn/w55WtTtgUuIg3WPQr2+6f4Wu24aO0YO1Hm9bvSoqtrZODnw+/j5xyNdJDIn1imkT6gTkEW6Zb/Q6m6TjtwpUpqEllr4b2OsORZ8deiesdmpLx6eJDMySN3HpyxVT0VCUgAAAAAAAACH9G6WGxvSHR8drm0S7Liaut4yChmpndz8nXbVjSO05V+ayNRr1X7uJgQ/o3dw2S6Q6Pkdc1eXWsTa1vGT0MLM3tfjK7qsax1XIvyWNqtYqfdoEwAAAAAAAAAAAAAAAAAAAAAAAAAAAAAAAAAAAAAAAAAAAAAAAAAAAAAeVmtWu1padyvHPXnY6KWKViOZIxycOa5q+ioqKqKilT9E7drRcvl/Z8zc8kjtWiZe1exK9Xuu67I5WwtVy/tSVZEdWenqvYyu93rKW6Vl1x1fPWMZi+pWi0H29u0Kd+Sx9SP9vJ1HNRt3Gpz6c2IU4Zz6NnjrvX9gCzQanVNowe7azi9v1q8y5iszUiu052/J8UjUc1VT6Lwvqi+qLyi+qG2A+XsZKx0cjGvY9Fa5rk5RUX5oqFfZDp9lsO9z9TlgsUVXluPtSKxYE/owyIi/h+zHJ6fJHInCJYYOWTDXL16ueTHXJ1VWmN3NzvDbpF1rvl3vuVUj/tSVXcf/KbrC9P7di3DktusQSJA5JIcdWVXQI9F5a6R7kRZFRfknDWovrwq8Kk6BzrpaxP5pmff/UQ5101KzvPMABJSAh2yaHJbvS5zXLcdO9N62IJWqte0vHCOdx6sfwnHe3nlPmjvTiYg0yY65I2s0vSuSNrKsfi90gcscml2ZnJ/Pq3azo1/rkkY7/6TLp6PsuaVG5uWPD0l474q03iWpU+rVeidsaL9Vb3L9lavqWQDhGkr/6mZ+H2iHGNLSJ5zMvCjRp4ynDj8fWZXrV2JHFExOGtanyRD3AJMRERtCT0AAZAAAAAAKu9oPM5b4Qp9OtWuPrbF1Evs1qjPEvElOCRrn3rjfReFgqR2JGqqceIkTVVO9C0SodFVeo3WnaupEzVfiNMSXSteVfVr7KOZJlrLf8A/cyCrz6KjqUyeqPAtHC4bF65hqGvYOlHTx2LqxUqdaJOGQwRsRkbG/kjWoifwKu6Of8Aq723Y+gtn8FLGKuwanz8nYWzKvfWb/itlZIuOfwwyVfuW8VX18xWRxuJxXWDWqctnN9ObEmUWvCnMl7FPb25GmifzlfAnisbx6zV4ALUBiYnK47O4qnm8Pcit0MhXjtVbES8smhkajmPav1RWqip/EywAAAAAAAAAAAAAAAAAAAAAAAABDerXUJOmumT5urj1yeZuTxYvBYxvPdkMnYd2VoPT1a1Xr3Pf8mRskevoxSZFOaQj+r/AFTt9V7Dmyarp0lrBaezj8Nq5ysWRyiLzw5qqi1YV+jWWXIqtnQCY9JenqdNdMgwlrIOyeZuTy5TO5N3PdkMnYd32Z/X1a1Xr2sZ8mRtjYnoxCZAAAAAAAAAAAAAAAAAAAAAAAAAAAAAAAAAAAAAAAFO3FXo/wBaosiieHqHVSyyra4/Yx+ysj7YZOE9GsuQR+G5V9PGrwp6unUuIjvULR8R1I0vLaRnFlZVysHh+NC7tlrStVHxTxO/myRyNZIx30cxq/Q0HRbeMzt2sWMRujYodz1S27B7JFGxGMfbja1W2o2fzYbETo7EafRkyNX1aoFggAAAAAAAEf6e/GXwBrP6RvKfFnuel7+8px4HvHwWeZ8Pj07PF7+OPpwSAh/Rulhsb0h0fHa5tEuy4mrreMgoZqZ3c/J121Y0jtOVfmsjUa9V+7gJgAAAAAAAAAAAAAAAAAAAAAAAAAAAAAAAAAAAAAAAAAAAAAAAAAAAAAAACndM7ukfVm/0vm4j1fd5LWwaovP4at/nxMljmono1qq7zkSfXxLSJw2JC4iFdXun9nqLpkuLw+Rjxmw46xFlteyUjVc2jlK699eVyJ6ujV3LJGJ+3FJIz5OUyOlm/wAHUrSaOz+Qkx15Vkp5XGyuRZcdkIHrFZqv4+scrXt5/nJ2uT0cigS0AAAAAAAAAAAAAAAAAAAAAKMy/X7fcZn9tss6Z6/NpumZ+vgshknbVKzKSLLHWcskNHyKxP4W0xEYtpqu7V49VRq3mVVrvs39L8X1E2PqpnNM1bObPms23MU8vbwFd1/Go2tDC2KOy5HSeiwq5HIreO9U49OVCPv6/wDUKK/fzM3TDXE0rHbamqS5Bu2ze9HPW2yqkzaK0EicniSNXs81z28qnK/hW0enGj47ptouE0bFzyWIcPUZA6zL/KWpv2pbEn3kkkV8jl+rnqU/S9mLpbc2LNbjq9nUXdTMRuE+bTZo8JWsXsbYna2VKNtGvSSRvlZ2p2OkY7slZIzsXscdBt7u1O5UVePVUThOQP0AAVD0Y/8AV5tGx9A7P4KeGX37qfPydg7Mjv73b/iljxYOOeWwuq8/tFvFVdfcbfxGMxPWbXaktjM9OZ5MlLBC3ukvYeRqNyVRE+blWFqTMaicumqwJ9SzMZkqGZxtTMYq3FapXoI7NaeJ3cyWJ7Ucx7V+qK1UVF/MDJAAAAAAAAAAAAAAAAAAAAAADW7JsWD1DX8ltezZODHYjD1Jb165O7tjrwRtV73uX7I1FX+oCvut2w5q/wC6ujWkXp6uybx4sc16sqeJhcPH2+dyH5ORr2QRL/v9iJfVrXcWDreu4PUNfxuqazjIMdiMPUio0acDe2OvBG1GMY1PsjURP6ivuiOvZq/726y7vSnq7JvHhSQ0bKJ4mFw8fd5LH/k5GvfPKn+/2JU9WtbxaYAAAAAAAAAAAAAAAAAAAAAAAAAAAAAAAAAAAAAAAAAp3qp3dK96xfXinxHhZ44df3diLw1KDpF8pkVRPm6rNIrXL9ILM7l/kmlxGLlcXjs5i7mFy9OK5QyFeSraryt7mTQyNVr2OT6orVVFT7KBlAqfobk8nrb8t0L2q9LayujpEmLuTqqyZPAS9yUbCuVeXyRox1aZ3zWWur14SRpbAAAAAAAIf0bu4bJdIdHyOuavLrWJta3jJ6GFmb2vxld1WNY6rkX5LG1WsVPu0mBH+nvxl8Aaz+kbynxZ7npe/vKceB7x8FnmfD49Ozxe/jj6cASAAAAAAAAAAAAAAAAAAAAAAAAAAAAAAAAAAAAAAAAAAAAAAAAAAAAAAAAA/lB7QnVj2r+nntO6nrm8aMzQ9V27eddyOSs4C7LYxOet1J2N8aOdWsc10kbYElheiOclaBVanCq/+m23bm7Czsw2Grx28tMxJeyRypFWiVVTxJVT14VUVGtT1cqL6oiKqV5s2tQb3R93b9alztRZo7HlJkSOs2WN6Pjc2NnHqxzWuarlc5FRF55QjZNTFZ4axvPycMmorSdo5yuwFT1Z9jxLklw+y3ndvr4GQldbif8AkqvVZE/i16f1k41LbYdlhmgnr+TydPtS3UV/d2d3Pa9juE7mO4Xh3CfJUVEVFQzj1EXnhtG0mPPW87dJSAAEh3AAAAAAAAAAAAAAGp2XZKOsY9Lttr5ZZXpDWrx8eJYlVFVGN5/JFVVX0REVV9EIBbyW1ZtfFyubnosd6pTxsixMj/JZURJHr+aK1P3UOGTPXHPDEby45M1cc7dZWqR3qHu2L6b6Pm96zLJJKuEpSW3QxJzJO9qfghjT6ySPVrGp9XORPqQWKDJ1HeLjtozkEqfJZL8lpv8AW2dXt/zGo2Fdj6jbro2mbXBRiwGNyjtgu2WP4blLNNGvoVvCXntVJ3eaVOVTmkzhfVUTWmpiZ4bxt9GtNRW07TyTjoppOU0bQKlTZnxy7Nl5ps3sU0a8tkylt6y2Eav1jY53hR/aOKNE9EJ2ASUgAAAqDomv6Pdi2PoBa/BV15UzOqc/J+AtPd2QN/xSdJa/byqpElVV/bQt8qbr/j72BoYbrdr9SWfK9OJ5b1qCBiuku4OVGtydVERFVy+ExlhjETl01SFv1UC2QaWPdNRmi8aHZsY9q41mY4baYrvIv57LPbzz4TuF4fxwqoqIpC7227JsbnPo2JcJjVX9UjGNW3O3+k9XIqRIv0aid3Hzci+iccuauLl1nwcsmWuPqs4FQpRtNd4kexbA2X5965ew5Of8Bz1Z/wDSbbGbxl9ekYzZ7KX8Uq8OvqxrJqv2WVrURr2fdyIit+aoqcqnKNVEfrjaPH+XOuprM/mjZZAPxrmuRHNVFRU5RU+qH6S0kAAAAAAAAAAAA1Oy7JR1jHpdttfLLK9Ia1ePjxLEqoqoxvP5Iqqq+iIiqvohra0Ujit0YmYrG8tsU5u6v6v9UqnSiu1smq6dJVzu4P5/DaucpLjsWqccOaqolqZPo1lZqorZlM63ktqza+Llc3PRY71SnjZFiZH+SyoiSPX80VqfuoazE69FrclufV8lkMVNfsvu2nR2HSpYsOREdLK2XuR71RrUVypyqInr6IRvWu+K8vmjTqo35QugEM1bd7Vi/Hr+zRwxXZufKWoUVsVvhOVb2rz2SIiKvbyqKiKqL6KiTM748lcsb1d6XjJG9QAHRuAAAAAAAAAAAAAAAAAAAAAAAAAAAAAAAAAAAAAABqdl2SjrGPS7ba+WWV6Q1q8fHiWJVRVRjefyRVVV9ERFVfRDW1opHFboxMxWN5cKf3STqB7U/S2xF1D6YdPK8WExVK1Sh3TDWZJrtKlbrNZar3oOxPDZ47WTRytVWtfBAquRyuY7qL2QMzPn/Za6VZS1alszSanjWSTSvV75HMgaxXOcvqqqrfVV+Z75C7suxRvTN5eSrBM1WuoY9/hxtavza6XjxH+noq8tRf6KGs13Waul4qrhNHu3cDj6Efh1KdWdXVYGc89rIJO6NreVX0RE+ZG9a74ry+aNOqjflC6wQzVt3tWL8ev7NHDFdm58pahRWxW+E5VvavPZIiIq9vKoqIqovoqJMzvjyVyxvV3peMkb1AAdG4Q/o3Sw2N6Q6Pjtc2iXZcTV1vGQUM1M7ufk67asaR2nKvzWRqNeq/dxMCH9G7uGyXSHR8jrmry61ibWt4yehhZm9r8ZXdVjWOq5F+SxtVrFT7tAmAAAAAAAAAAAAAAAAAAAAAAAAAAAAAChfaL645vpZu2iarT6i9PNExu0R5OS5nt0qPnqwurMidHExEu1Go56vVPWRfl6IZud9pXX9AxmPgzjrG+WocHHsWdzOm0YGY2ji3ydjcg6Oe45/gLw5UZDJYlVsb3I1U4JtsnTX4h6p6Z1L99eX+EauTreS8t3+a84yNvd4ncnZ2eHzx2u55+nBW3W/wBkfW+sHUKDqKiaezIzYyLC5F2xaXU2FfKxzLI19NLLkZWsJ3yt8R7JmKjk5id2+ob/AGf2oNE1DqhrvS/N4XOQT7XYjp4jJv8AJx1rc74/ERsUL7DbkrERWNWeOu6Brno10iKjkSPdNfawbtVnH0dx6bZ3XrGw73k9KwqeJTnjdJTisSukldHYcrU7asiOVG/tuajUe3mQwbfsjZRvUV+1YLqRjcdgptxx+52Mb8LsfdsT1a7YG1n3UsNTy6NbzGxsKLGq8IrmfgX3X2V9kpOqWcH1NxcFrA77d3nXpbWuSTtrPuMsMs1rTW3GeZRW2pEY9iw9vDeWv4AkGM9qfU8/e17E6zo24ZfIbNLmIqVWvDSY5vu20ley+R0tljGN7l7mr3erU+jlRi7LSfaP0/e9vg1fG67slSpk58hVwmcuVoG4/MzUXqy0yurJXTN7HI7h00UTZEYro1enCroOmHswy9O8/qGfs7773l1aPYmyNXFpB5x2VttsK70lckfhq3t4RF7uefw/I1HS/wBjHU+me6X87Tm1l2Nkfk30n0dSrUNgZ517nPbPm43rZekSPeyJYUrvRqtR75FbyBIfac6pdRujOpXOpWEzGj4/WsDS8e1Bmqlq1ey9x0jWxUKqRSxNhdIiq1si+Ove5P1Soiqtx422+/jqt+StJWdZgZM6GT9uNXNRe13H1Tnhf4HOvVD2SNh3Td9D2LXuqVRuB6eLJcxevbljMjs8MmTc5ytvzTy5OKeaWNF4jSR7kZ6qn046PrtnbBG21JHJMjESR8bFY1zuPVUaqqrUVfkiqvH3X5gegAAAAAAAAAAAAAAAKdw9l2Vim2GZVdLmJXXFcvzSN38k3+DY0Yn9S/czzW6/A6hjW4aVOJcS92PkRfnzEva1f62o1yfk5DZFTj/RG6pjfbmHlBZdidjw2YiVW91pmPn4/nxTuRiNX+EixuT+C/c9TW5fBYzb5qGmZjGVclQy9lrb1O3A2aCepH+slZLG5Fa+NyNRitciovfwqepm3Tl15be/uZjfeNlygh93o50hyWGwmuZHpXp9rE61Ik2FoT4Oq+vjHp6o6tGrO2FU+7ERTYfo90H4y/SN8D6/8WeX8p7+92Q+8fA448LzPb4vZx6dvdwWq1SAEPpdG+kONw2b1zHdK9Pq4nZZFmzVCDB1WV8m9fVXWY0Z2zKv3eiqLvRzpDksNhNcyPSvT7WJ1qRJsLQnwdV9fGPT1R1aNWdsKp92IigTAEf/AEe6B8ZfpG+B9f8Aizy/lPf3uyH3j4HHHheZ7fF7OPTt7uDX0ujnSHG4bN65julen1cTssizZqhDg6rK+TkX1V1mNGdsyr93oqgTAEPu9HOkOSw2E1zI9K9PtYnWpEmwtCfB1X18Y9PVHVo1Z2wqn3YiKbD9Hug/GX6RvgfX/izy/lPf3uyH3j4HHHheZ7fF7OPTt7uAJACH0ujfSHG4bN65julen1cTssizZqhBg6rK+TevqrrMaM7ZlX7vRVF3o50hyWGwmuZHpXp9rE61Ik2FoT4Oq+vjHp6o6tGrO2FU+7ERQJgUFuXtrdGOl3XC10L6u3LelZB9etdxGYyrWtxeVrzM/bZO1V8HskbNG5ZkYzmJeHLyiFu/o90H4y/SN8D6/wDFnl/Ke/vdkPvHwOOPC8z2+L2cenb3cHKm/f3Mjo71Z673+qG+RY6lqkbIY8bqWsYuPERTv7e6xPfnh4dPLJM+VVcxGP7WxIsi9vAF75nLVdl2ufIU7kVujj60MFOSGRHxPWaNsz5GuTlF7mPhRFT6J+Z+mrx2k610yyU2kahgqmGwcdavYxtKrH2RRxtjbC9rU+6LG1zlX1VZOV5VeTaFZ/6tv4z9f4Vl9+Od/EMPL1pbVCRKr1jtRcTVpE+cczF7mOT+DkT+rlDMMTK3Pd+OsXGtVz42L4bETlXvX0a1PzVyoifmprfbhnfo0notDB5NmawuPzMbe1l+rFZan2R7Ecif5zONbreLdhNdxWGe5HOoUoKqqn1VkaN//Y2RZ034Y4uq0rvtG/UABs2CD9Zte6o7RoF/FdG9+paftKq2SnkbuLjvwO7eVWGSN6KjWv8ARqvRrlaiqqNVfQnAA/lf7D/Trrtp3tCdQ9U6807tTJYfC4qhBDIn96PxUcsy1mU1b+r8qj4mdrWfhTtc1URyORO/TcdSYHQZLA5lU/VMfYx8i/RqzoxzVX+LoGt/i5DTldk/7bb+X0j+1dm39JO4fjmte1WPajmuThUVOUVPsfoNXNJumVySXX5cXM9z3Ye3JQa5y8r4SI2SJP6o5GN/qJaVn010DTbOUm6rWdQwsuy25ZoKebkx8S346KIkbYmWFb4jYndjn9iO7V8RV49VN5S6N9Icbhs3rmO6V6fVxOyyLLmqEGDqsr5N6/N1mNGdsyr93oqkzTb+ir/uXd8lhh39HG6YAh93o30hyWGwmuZHpXp9rE61Ik2FoT4Oq+vjHp6o6tGrO2FU+7ERTYfo90H4y/SN8D6/8WeX8p7+92Q+8fA448LzPb4vZx6dvdwd3VIAQ+l0b6Q43DZvXMd0r0+ridlkWbNUIcHVZXyb19VdZjRnbMq/d6Kou9G+kOSw2E1zI9K9PtYnWpEmwtCfB1X18Y9PVHVo1Z2wqn3YiKBMAR/9Hug/GX6RvgfX/izy/lPf3uyH3j4HHHheZ7fF7OPTt7uDX0ujfSHG4bN65julen1cTssizZqhBg6rK+TevqrrMaM7ZlX7vRVAmAIfd6N9IclhsJrmR6V6faxOtSJNhaE+Dqvr4x6eqOrRqzthVPuxEU2H6PdA+Mv0jfA+v/Fnl/Ke/vdkPvHwOOPC8z2+L2cenb3cAVFuXtrdGOl3XC10L6u3LelZB9etdxGYyrWtxeVrzM/bZO1V8HskbNG5ZkYzmJeHLyiEpzOWq7Ltc+Qp3IrdHH1oYKckMiPies0bZnyNcnKL3MfCiKn0T8yiN+/uZHR3qz13v9UN8ix1LVI2Qx43UtYxceIinf291ie/PDw6eWSZ8qq5iMf2tiRZF7eC5MdpOtdMslNpGoYKphsHHWr2MbSqx9kUcbY2wva1Puixtc5V9VWTleVXki6v9Nff9p+6Nqt+CPe2gAIyGw8vWltUJEqvWO1FxNWkT5xzMXuY5P4ORP6uULRweTZmsLj8zG3tZfqxWWp9kexHIn+cq/K3Pd+OsXGtVz42L4bETlXvX0a1PzVyoifmpZmt4t2E13FYZ7kc6hSgqqqfVWRo3/8AY66f/snbw5/b7pGm34pbIAE5NAAAAAAAAAAAAAAAAAAAAAAAAAAAAAAAAAAAAAArHZbLspu13xFVYsNFHThavybJIxssjv4q10Sf/L+ZZxV+dgdQ3fLwyJwmSZBkIl+jkSNsL0T+HhMVf8NPuRdX+mvv+0/dG1W/BHvfAAIyGw8vWltUJEqvWO1FxNWkT5xzMXuY5P4ORP6uULRweTZmsLj8zG3tZfqxWWp9kexHIn+cq/K3Pd+OsXGtVz42L4bETlXvX0a1PzVyoifmpItZ6J9LcDp1zUf0bap5TPRRrsNduGreFmLHanfLbb2cWHudyqukRyqq8qddP/2Tt4c/t90jTb8Up4UFuXtrdGOl3XC10L6u3LelZB9etdxGYyrWtxeVrzM/bZO1V8HskbNG5ZkYzmJeHLyiFm3ejfSHJYbCa5kelen2sTrUiTYWhPg6r6+Menqjq0as7YVT7sRFOd+sP9zx0P2ivaJudaetWeffwlenTx+K13FV/JLLFFHy91601fEmV0r5eOzw3NYkad68cE5NdZU7tPI1Ib+Ptw2qtmNssM8MiPjkY5OWua5PRUVF5RU9DS9PfjL4A1r9I3lPiz3PS9/eU48D3j4LPM+Hx6dni9/HH04MjUdQ1jQtax2naZg6mHwmJhSvSo1I0ZFDGnrwifmqqqqvqqqqryqqpp+jdLDY3pDo+O1zaJdlxNXW8ZBQzUzu5+TrtqxpHacq/NZGo16r93ATAAAAAAAAAAAAAAAAAAAAAAAAAAAAAAAAAAAAAAAAAAAAAAAAAAAAAAAAEL3DT71i8uya22N917Gx26kj+xltjf2XI75Nkanoir6OThF44RUh0+wY2g7wsy9+JlT0WPIMWuvP5Od+F38WqqfmXKCLfTbzxUnbf9/4Rsmni071nZTtXMRZVyQ69WnzErvRqU2d0aL+9L/JtT+Lv7Sc6ZqM+FdNmczLHNlrbEjf4SqsVaJF5SKPnhVTn1c7hFcqJ6IiIiSkGcen4bcVp3n5M49PFJ4pneQAElIAAAAAAAAAAAAAGg2/VmbLThdBY8rkKT1lp2OOUa5U4c16fzmOT0VPyRU9URSvrd21hF8HaMdNjJG/tTK1X1X/AJtmRO3j8ndrvuhcAI+XTxeeKs7S4ZMEZJ4o5SpiLZcJad4WNvsyMq/KKgi2Xqv27Y+V/tJRrGn5K/kYM9stbysFN6S0qCvRz1k49JZuPTlOfwsRV4X1VeURGz8GlNLz3vO/7bfy1pporO9p3AAS0kAAAAAYeYxNHO4yziMjEr69piseiL2qn1RUVPVHIvCoqeqKiKVnex2e1dzoMzUnu02LxFkqsKyI5v08ZjUV0bvuqIrF+fKfJLYBwy4IyTxRO0/7q45cMZOfepdNr1pzvDjzlJ8ny8JkqOk5+3Yn4uf6jaY/XM1tzkhfUtYzDP8ASeeZrobFhv8AQiYvDmIqfN7uFRP2UVfVLUByjSzP67bx5Rt95cq6Xn+ad3nXrwVK8VWtE2KGFjY42NThrWonCIifREQ9ACZ0SwAAAAAAAAAADQbfqzNlpwugseVyFJ6y07HHKNcqcOa9P5zHJ6Kn5IqeqIpvwa3pGSvDbo1tWLxtKn7d21hF8HaMdNjJG/tTK1X1X/m2ZE7ePyd2u+6HhFsuEtO8LG32ZGVflFQRbL1X7dsfK/2lzgieq37rfL+4+iNOl58rfJANY0/JX8jBntlreVgpvSWlQV6OesnHpLNx6cpz+FiKvC+qryiI2fgEnFirijaEjHjjHG0AAOjcAAAAAAAAAAAAAAAAAAAAAAAAAAAAAAAAAAAAADQbfqzNlpwugseVyFJ6y07HHKNcqcOa9P5zHJ6Kn5IqeqIpvwa3pGSvDbo1tWLxtKn7d21hF8HaMdNjJG/tTK1X1X/m2ZE7ePyd2u+6HhFsuEtO8LG32ZGVflFQRbL1X7dsfK/2lzgieq37rfL+4+iNOl58rfJANY0/JX8jBntlreVgpvSWlQV6OesnHpLNx6cpz+FiKvC+qryiI2fgEnFirijaEjHjjHG0AAOjcIf0bu4bJdIdHyOuavLrWJta3jJ6GFmb2vxld1WNY6rkX5LG1WsVPu0mBH+nvxl8Aaz+kbynxZ7npe/vKceB7x8FnmfD49Ozxe/jj6cASAAAAAAAAAAAAAAAAAAAAAAAAAAAAAAAAAAAAAAAAAAAAAAAAAAAAAAAAAAAAAAAAAAAAAAAAAAAAAAAAAAAAAAAAAAAAAAAAAAAAAAAAAAAAAAAAAAAAAAAAAAAAAAAAAAAAAAAAAAAAAAAAAAAAAAAAAAAAAAAAAAAAAAAAAh/Rulhsb0h0fHa5tEuy4mrreMgoZqZ3c/J121Y0jtOVfmsjUa9V+7iYEP6N3cNkukOj5HXNXl1rE2tbxk9DCzN7X4yu6rGsdVyL8ljarWKn3aBMAAAAAAAAAAAAAAAAAAAAAAAAAAAAAAAAAAAAAAAAAAAAAAAAAAAAAAAAAAAAAAAAAAAAAAAAAAAAAAAAAAAAAAAAAAAAAAAAAAAAAAAAAAAAAAAAAAAAAAAAAAAAAAAAAAAAAAAAAAAAAAAAAAAAAAAAAAAAAAAAAAAAAAAACP9PfjL4A1n9I3lPiz3PS9/eU48D3j4LPM+Hx6dni9/HH04JAQ/o3Sw2N6Q6Pjtc2iXZcTV1vGQUM1M7ufk67asaR2nKvzWRqNeq/dwEwAAAAAAAAAAAAAAAAAAAAAAAAAAAAAAAAAAAAAAAAAAAAAAAAAAAAAAAAAAAAAAAAAAAAAAAAAAAAAAAAAAAAAAAAAAAAAAAAAAAAAAAAAAAAAAAAAAAAAAAAAAAAAAAAAAAAAAAAAAAAAAAAAAAAAAAAAAAAAAAAAAAAAAAAIf0bu4bJdIdHyOuavLrWJta3jJ6GFmb2vxld1WNY6rkX5LG1WsVPu0mBH+nvxl8Aaz+kbynxZ7npe/vKceB7x8FnmfD49Ozxe/jj6cASAAAAAAAAAAAAAAAAAAAAAAAAAAAAAAAAAAAAAAAAAAAAAAAAAAAAAAAAAAAAAAAAAAAAAAAAAAAAAAAAAAAAAAAAAAAAAAAAAAAAAAAAAAAAAAAAAAAAAAAAAAAAAAAAAAAAAAAAAAAAAAAAAAAAAAAAAAAAAAAAAAAAAAAAAh/Rulhsb0h0fHa5tEuy4mrreMgoZqZ3c/J121Y0jtOVfmsjUa9V+7iYEP6N3cNkukOj5HXNXl1rE2tbxk9DCzN7X4yu6rGsdVyL8ljarWKn3aBMAAAAAAAAAAAAAAAAAAAAAAAAAAAAAAAAAAAAAAAAAAAAAAAAAAAAAAAAAAAAAAAAAAAAAAAAAAAAAAAAAAAAAAAAAAAAAAAAAAAAAAAAAAAAAAAAAAAAAAAAAAAAAAAAAAAAAAAAAAAAAAAAAAAAAAAAAAAAAAAAAAAAAAAACP9PfjL4A1n9I3lPiz3PS9/eU48D3j4LPM+Hx6dni9/HH04JAQ/o3Sw2N6Q6Pjtc2iXZcTV1vGQ0M1M7ufk67asaR2nKvzWRqNeq/dwEwAAAAAAAAAAAAAAAAAAAAAAAAAAAAAAAAAAAAAAAAAAAAAAAAAAAAAAAAAAAAAAAAAAAAAAAAAAAAAAAAAAAAAAAAAAAAAAAAAAAAAAAAAAAAAAAAAAAAAAAAAAAAAAAAAAAAAAAAAAAAAAAAAAAAAAAAAAAAAAAAAAAAAAAAIf0bu4bJdIdHyOuavLrWJta3jJ6GFmb2vxld1WNY6rkX5LG1WsVPu0mBH+nvxl8Aaz+kbynxZ7npe/vKceB7x8FnmfD49Ozxe/jj6cASAAAAAAAAAAAAAAAAAAAAAAAAAAAAAAAAAAAAAAAAAAAAAAAAAAAAAAAAAAAAAAAAAAAAAAAAAAAAAAAAAAAAAAAAAAAAAAAAAAAAAAAAAAAAAAAAAAAAAAAAAAAAAAAAAAAAAAAAAAAAAAAAAAAAAAAAAAAAAAAAAAAAAAAAAh/Rulhsb0h0fHa5tEuy4mrreMgoZqZ3c/J121Y0jtOVfmsjUa9V+7iYEP6N3cNkukOj5HXNXl1rE2tbxk9DCzN7X4yu6rGsdVyL8ljarWKn3aBMAAAAAAAAAAAAAAAAAAAAAAAAAAAAAAAAAAAAAAAAAAAAAAAAAAAAAAAAAAAAAAAAAAAAAAAAAAAAAAAAAAAAAAAAAAAAAAAAAAAAAAAAAAAAAAAAAAAAAAAAAAAAAAAAAAAAAAAAAAAAAAAAAAAAAAAAAAAAAAAAAAAAAAAACP9PfjL4A1n9I3lPiz3PS9/eU48D3j4LPM+Hx6dni9/HH04JAQ/o3Sw2N6Q6Pjtc2iXZcTV1vGQUM1M7ufk67asaR2nKvzWRqNeq/dwEwAAAAAAAAAAAAAAAAAAAAAAAAAAAAAAAAAAAAAAAAAAAAAAAAAAAAAAAAAAAAAAAAAAAAAAAAAAAAAAAAAAAAAAAAAAAAAAAAAAAAAAAAAAAAAAAAAAAAAAAAAAAAAAAAAAAAAAAAAAAAAAAAAAAAAAAAAAAAAAAAAAAAAAAAIf0bu4bJdIdHyOuavLrWJta3jJ6GFmb2vxld1WNY6rkX5LG1WsVPu0mBH+nvxl8Aaz+kbynxZ7npe/vKceB7x8FnmfD49Ozxe/jj6cASAAAAAAAAAAAAAAAAAAAAAAAAAAAAAAAAAAAAAAAAAAAAAAAAAAAAAAAAAAAAAAAAAAAAAAAAAAAAAAAAAAAAAAAAAAAAAAAAAAAAAAAAAAAAAAAAAAAAAAAAAAAAAAAAAAAAAAAAAAAAAAAAAAAAAAAAAAAAAAAAAAAAAAAAAh/Rulhsb0h0fHa5tEuy4mrreMgoZqZ3c/J121Y0jtOVfmsjUa9V+7iYEP6N3cNkukOj5HXNXl1rE2tbxk9DCzN7X4yu6rGsdVyL8ljarWKn3aBMAAAAAAAAAAAAAAAAAAAAAAAAAAAAAAAAAAAAAAAAAAAAAAAAAAAAAAAAAAAAAAAAAAAAAAAAAAAAAAAAAAAAAAAAAAAAAAAAAAAAAAAAAAAAAAAAAAAAAAAAAAAAAAAAAAAAAAAAAAAAAAAAAAAAAAAAAAAAAAAAAAAAAAAACP8AT34y+ANZ/SN5T4s9z0vf3lOPA94+CzzPh8enZ4vfxx9OCQEf6e6l8A6BrOi+97eW+HMPSxPn7a8z2/Lwsi8aRf6b+zuX81UCQAAAAAAAAAAAAAAAAAAAAAAAAAAAAAAAAAAAAAAAAAAAAAAAAAAAAAAAAAAAAAAAAAAAAAAAAAAAAAAAAAAAAAAAAAAAAAAAAAAAAAAAAAAAAAAAAAAAAAAAAAAAAAAAAAAAAAAAAAAAAAAAAAAAAAAAAAAAAAAAAAAAAAAAAAAAAAAAAAAAAAAAAAAAAAAAAAAAAAAAAAAAAAAAAAAAAAAAAAAAAAAAAAAAAAAAAAAAAAAAAAAAAAAAAAAAAAAAAAAAAAAAAAAAAAAAAAAAAAAAAAAAAAAAAAAAAAAAAAAAAAAAAAAAAAAAAAAAAAAAAAAAAAAAAAAAAAAAAAAAAAAAAAAAAAAAAAAAAAAAAAAAAAP/2Q==;" vertex="1" parent="1">
          <mxGeometry y="100" width="1015" height="723" as="geometry" />
        </mxCell>
      </root>
    </mxGraphModel>
  </diagram>
</mxfile>
